<?xml version="1.0" standalone="no"?>
<!DOCTYPE svg PUBLIC "-//W3C//DTD SVG 20010904//EN"
 "http://www.w3.org/TR/2001/REC-SVG-20010904/DTD/svg10.dtd">
<svg version="1.0" xmlns="http://www.w3.org/2000/svg"
 width="1179.000000pt" height="1179.000000pt" viewBox="0 0 1179.000000 1179.000000"
 preserveAspectRatio="xMidYMid meet">
<metadata>
Created by potrace 1.14, written by Peter Selinger 2001-2017
</metadata>
<g transform="translate(0.000000,1179.000000) scale(0.100000,-0.100000)"
fill="#000000" stroke="none">
<path d="M5280 9420 c0 -5 5 -10 10 -10 6 0 10 5 10 10 0 6 -4 10 -10 10 -5 0
-10 -4 -10 -10z"/>
<path d="M5334 9366 c-8 -22 -2 -27 16 -16 12 7 12 12 3 21 -10 10 -14 9 -19
-5z"/>
<path d="M5181 9228 c7 -13 7 -23 0 -32 -15 -18 -27 -101 -13 -92 6 3 13 20
17 36 4 17 11 30 17 30 6 0 8 3 5 6 -9 10 12 46 24 39 5 -4 9 -12 9 -18 0 -7
-4 -6 -10 3 -7 11 -10 5 -10 -22 0 -28 -4 -38 -16 -38 -10 0 -14 -7 -12 -17 2
-10 10 -17 16 -15 7 1 12 -2 12 -8 0 -5 -7 -10 -16 -10 -14 0 -15 -3 -2 -22
10 -16 12 -33 7 -53 -5 -16 -11 -43 -14 -58 -5 -26 -8 -28 -38 -21 -43 9 -38
9 -154 0 -99 -8 -103 -10 -103 -32 0 -12 8 -29 18 -36 12 -9 17 -27 17 -58 0
-25 3 -49 6 -55 4 -5 12 -35 19 -65 15 -69 27 -100 38 -100 4 0 8 9 8 20 0 11
-4 20 -8 20 -4 0 -8 5 -8 10 0 6 7 10 15 10 8 0 20 10 26 22 8 14 14 18 17 10
2 -6 8 -9 13 -6 6 3 2 12 -8 20 -11 8 -13 13 -5 14 7 0 19 -5 26 -12 10 -10 8
-16 -10 -32 -30 -28 -39 -62 -19 -70 9 -3 18 1 21 9 4 8 13 15 21 15 9 0 22 8
30 18 12 15 13 14 7 -10 -8 -35 3 -36 16 -2 9 22 13 24 25 14 33 -27 45 -71
39 -136 -6 -56 -9 -63 -32 -69 -16 -4 -29 -1 -34 7 -7 10 -11 10 -14 1 -3 -7
-12 -9 -21 -6 -11 4 -14 2 -9 -5 4 -7 1 -12 -8 -12 -8 0 -20 8 -25 18 -10 16
-10 16 -11 0 0 -10 -3 -18 -7 -19 -5 0 -21 -2 -38 -4 -16 -2 -82 -6 -145 -10
-63 -3 -128 -8 -145 -10 -102 -12 -124 -13 -129 -2 -3 9 -5 9 -5 0 -1 -7 -9
-13 -19 -13 -10 0 -24 6 -31 13 -9 7 -11 7 -8 1 4 -7 0 -14 -7 -17 -8 -3 -17
-1 -19 6 -3 8 -10 5 -19 -7 -15 -19 -17 -18 -69 14 -87 54 -142 80 -169 79
-21 -1 -19 -2 10 -11 19 -5 43 -17 54 -26 10 -10 19 -16 20 -14 5 13 76 -33
76 -50 0 -16 -29 -8 -34 10 -3 9 -14 22 -25 29 -17 10 -19 9 -17 -13 0 -13 4
-24 9 -24 16 0 6 -19 -10 -20 -10 0 -55 -3 -101 -6 -63 -4 -93 -2 -125 10 -32
13 -38 13 -24 2 28 -22 3 -29 -34 -10 -26 13 -33 13 -40 3 -6 -11 -12 -10 -27
4 -23 21 -39 22 -22 2 10 -12 9 -15 -8 -15 -11 0 -23 6 -25 13 -4 9 -8 8 -17
-3 -10 -13 -11 -13 -7 0 2 8 12 15 23 15 10 1 18 7 16 14 -2 8 3 11 12 8 9 -4
15 -1 13 6 -2 14 57 45 121 62 26 7 37 14 26 14 -29 1 -152 -37 -159 -49 -9
-15 -49 -12 -71 5 -10 8 -23 15 -29 15 -5 0 1 -7 13 -16 12 -8 20 -20 17 -25
-4 -5 -1 -9 6 -9 8 0 8 -4 -1 -15 -13 -16 -40 -21 -40 -7 0 4 5 13 11 19 7 7
6 12 -6 17 -9 3 -18 0 -21 -9 -4 -8 -10 -12 -15 -9 -15 9 -10 54 6 60 8 4 13
10 10 14 -7 11 62 70 102 86 40 17 44 28 6 13 -48 -17 -118 -70 -136 -101 -22
-38 -22 -60 1 -81 85 -78 114 -108 99 -103 -16 5 -16 4 0 -22 l18 -27 -25 17
c-55 39 -63 39 -20 0 25 -23 50 -41 56 -42 6 0 19 -10 30 -22 10 -12 13 -18 7
-14 -7 4 -13 5 -13 3 0 -2 20 -17 45 -33 28 -17 41 -31 33 -35 -13 -8 -48 6
-97 39 -19 12 -36 20 -39 17 -3 -2 -10 2 -16 10 -6 9 -20 17 -31 19 -39 7
-114 50 -108 60 3 6 3 8 -1 5 -4 -4 -49 8 -99 26 -207 74 -361 67 -450 -20
-39 -38 -53 -44 -43 -20 3 8 1 15 -4 15 -6 0 -11 -19 -12 -42 l-1 -43 -4 38
c-3 21 1 45 8 53 9 11 8 14 -4 14 -12 0 -16 -18 -20 -82 -3 -46 -10 -114 -16
-153 -11 -63 -10 -127 5 -235 4 -32 3 -33 -7 -12 -7 12 -16 22 -21 22 -5 0 6
-28 24 -61 24 -45 30 -63 20 -66 -10 -4 -9 -8 3 -17 8 -6 18 -29 20 -51 3 -22
8 -48 11 -57 6 -21 -21 -26 -29 -5 -3 6 -4 -10 -2 -38 1 -27 4 -50 5 -50 1 0
4 -10 5 -23 2 -16 -2 -22 -12 -18 -10 4 -11 1 -3 -14 5 -10 10 -27 10 -37 -1
-14 -6 -12 -26 12 l-26 30 16 -32 c16 -31 15 -35 -5 -74 -14 -28 -24 -38 -29
-30 -4 8 -7 2 -7 -16 0 -15 -13 -59 -28 -98 -33 -85 -66 -233 -53 -241 5 -3 4
-12 -3 -20 -6 -8 -9 -23 -6 -34 3 -11 1 -18 -4 -14 -5 3 -8 -10 -8 -28 1 -18
3 -25 6 -15 2 9 8 15 12 12 10 -6 25 111 16 125 -3 6 -1 10 5 10 8 0 9 11 5
33 -5 25 -4 29 5 17 9 -12 10 -9 6 13 -4 15 -2 46 5 69 15 59 60 155 66 141 2
-6 -5 -30 -16 -52 -37 -72 -22 -58 24 23 25 44 47 81 50 84 2 3 9 -8 15 -23
14 -36 -12 -84 -36 -64 -16 13 -18 5 -4 -20 7 -14 3 -36 -16 -82 -39 -99 -63
-214 -69 -329 -3 -58 -11 -132 -17 -164 -16 -83 -27 -46 -30 97 -1 62 -4 99
-6 83 -2 -21 -6 -25 -12 -16 -5 8 -8 -1 -7 -23 1 -23 4 -32 9 -24 5 7 8 -27 6
-78 -1 -49 4 -141 11 -203 7 -63 11 -123 8 -135 -3 -12 -1 -31 3 -42 6 -14 9
2 10 50 l2 70 22 -72 c13 -39 26 -109 30 -155 11 -140 71 -365 141 -531 6 -13
4 -16 -9 -11 -10 4 -15 13 -12 21 3 8 1 11 -4 8 -6 -4 -7 1 -3 11 4 11 3 15
-5 10 -6 -3 -13 3 -17 15 -4 11 -9 18 -12 16 -2 -3 5 -27 16 -52 12 -26 21
-53 21 -60 0 -7 -26 -30 -58 -53 -80 -56 -203 -187 -231 -247 -36 -74 -35
-158 2 -213 49 -75 167 -128 310 -139 42 -3 77 -8 77 -9 0 -6 -38 -43 -42 -41
-1 1 -2 0 0 -2 1 -2 -5 -13 -15 -23 -9 -10 -11 -18 -5 -18 6 0 14 5 17 10 5 8
11 7 21 -1 11 -9 19 -8 36 7 21 19 21 19 10 -2 -6 -11 -29 -37 -51 -57 -21
-19 -37 -37 -35 -40 2 -2 38 29 79 70 42 41 80 71 86 67 6 -3 13 4 16 16 4 15
8 18 13 9 5 -7 0 -19 -13 -29 -21 -17 -21 -17 9 -17 39 -1 55 -5 84 -26 13 -9
29 -17 35 -17 5 0 2 5 -8 11 -14 8 -16 14 -6 25 8 10 15 11 24 4 10 -8 17 -5
28 11 15 21 17 21 33 4 17 -17 17 -17 -3 -11 -47 15 -27 -39 22 -57 10 -4 15
-10 12 -13 -3 -3 -15 0 -27 6 -12 6 -22 10 -23 8 -1 -2 -8 -12 -14 -23 -27
-44 -43 -75 -38 -75 2 0 17 19 31 42 22 35 28 39 38 26 6 -8 14 -16 19 -16 4
-1 7 -4 7 -7 0 -3 0 -12 0 -21 0 -10 -6 -14 -15 -11 -8 4 -17 2 -20 -3 -7 -11
69 -52 79 -43 19 19 1 -24 -29 -72 -20 -30 -32 -55 -28 -55 4 0 2 -5 -5 -12
-9 -9 -15 -9 -24 0 -7 7 -16 12 -20 12 -16 0 30 -38 54 -44 18 -6 20 -5 6 3
-13 9 -14 15 -5 36 7 14 16 25 20 25 5 0 6 3 4 8 -3 4 5 20 18 36 22 27 26 29
51 18 23 -11 26 -11 20 3 -3 10 -2 14 5 10 6 -4 8 -13 5 -20 -3 -8 6 -21 20
-29 34 -23 30 -33 -15 -32 -29 1 -37 4 -33 16 5 13 4 13 -10 0 -15 -14 -15
-16 -1 -27 9 -7 20 -10 24 -7 5 3 9 -2 9 -10 0 -9 -9 -16 -21 -16 -11 0 -18
-4 -15 -9 3 -5 16 -7 29 -5 12 2 16 2 9 -2 -23 -11 -2 -23 24 -14 17 7 23 7
19 0 -3 -6 0 -10 7 -10 10 0 10 -2 0 -9 -8 -4 -13 -11 -13 -15 1 -3 -2 -5 -6
-3 -5 1 -7 8 -5 15 2 8 -5 6 -17 -5 -21 -17 -28 -35 -13 -31 4 2 18 -5 32 -15
13 -9 19 -17 13 -17 -7 0 -15 5 -18 10 -4 6 -10 8 -15 5 -12 -8 22 -43 35 -36
6 2 4 -3 -4 -13 -10 -12 -22 -15 -40 -11 -20 4 -22 3 -11 -5 9 -6 10 -10 3
-10 -6 0 -19 -7 -28 -16 -8 -9 -50 -22 -93 -29 l-77 -14 65 1 c36 1 88 7 115
14 67 16 85 15 85 -8 0 -11 -4 -17 -9 -13 -5 3 -12 1 -16 -5 -3 -5 -2 -10 4
-10 19 0 -13 -58 -41 -75 -16 -9 -26 -20 -23 -26 3 -5 0 -6 -8 -3 -8 3 -18 0
-23 -7 -4 -8 -3 -10 4 -5 7 4 12 4 12 1 0 -10 -84 -84 -95 -85 -5 0 -3 -5 5
-10 12 -8 11 -10 -7 -10 -13 0 -22 -5 -20 -12 1 -7 -5 -13 -13 -14 -46 -4 -46
-4 -31 -13 11 -7 4 -15 -28 -35 -22 -14 -41 -29 -41 -32 0 -4 10 0 22 8 13 8
32 18 43 22 l20 7 -20 -18 c-26 -24 -81 -63 -89 -63 -3 0 -6 8 -7 18 -1 10 -4
7 -7 -8 -6 -20 -31 -37 -122 -83 -63 -31 -112 -57 -110 -57 3 0 20 4 38 9 l33
10 -43 -43 c-59 -59 -94 -75 -184 -83 -62 -5 -73 -8 -53 -15 24 -9 24 -10 4
-24 -18 -13 -16 -14 28 -10 26 3 47 0 47 -5 0 -5 -8 -9 -17 -9 -15 0 -16 -2
-3 -10 12 -8 10 -10 -10 -11 -23 -1 -22 -2 5 -8 30 -7 30 -7 8 -19 -13 -7 -23
-10 -23 -6 0 4 -8 0 -17 -8 -37 -33 -188 -70 -288 -71 -64 -1 -114 6 -109 14
2 4 -3 9 -11 13 -10 3 -15 19 -15 47 0 48 -10 47 -16 -3 -7 -62 -6 -59 -23
-45 -41 32 -67 81 -40 74 6 -1 14 4 17 12 3 10 0 11 -9 5 -10 -6 -10 -2 2 16
23 35 48 48 58 31 5 -8 10 -9 12 -3 3 7 20 4 48 -9 24 -11 49 -18 55 -16 18 6
-87 50 -121 50 -18 1 -40 -7 -51 -16 -10 -9 -22 -14 -27 -10 -4 5 -5 -2 -2
-14 3 -13 1 -26 -4 -29 -5 -3 -9 -4 -9 -2 0 2 -4 28 -9 58 -10 60 5 187 33
300 10 36 15 73 13 82 -3 9 0 19 7 22 6 2 4 5 -4 5 -28 2 -161 -180 -220 -299
-24 -49 -13 -44 17 7 46 81 118 173 135 173 20 0 6 -30 -17 -36 -14 -3 -22
-10 -19 -15 3 -5 0 -9 -5 -9 -6 0 -11 -5 -11 -12 0 -6 10 -2 23 10 25 24 43
29 30 10 -4 -7 -8 -17 -8 -23 0 -5 -10 -11 -23 -13 -26 -4 -72 -70 -115 -165
-31 -68 -17 -67 17 1 27 52 60 87 74 78 6 -3 13 -30 17 -59 4 -28 17 -79 30
-112 13 -33 26 -73 30 -90 6 -24 9 -27 14 -12 6 17 8 17 25 -1 9 -11 40 -30
67 -41 33 -15 47 -26 42 -34 -5 -9 -3 -9 8 -1 8 6 59 14 113 17 62 3 94 2 85
-4 -7 -5 -21 -9 -29 -9 -8 0 -26 -6 -40 -13 -29 -15 -84 -14 -104 2 -11 9 -15
6 -18 -13 -3 -14 0 -27 6 -29 6 -2 -16 -7 -49 -11 -35 -4 -61 -3 -63 3 -7 21
-134 -19 -159 -51 -6 -7 -14 -24 -17 -38 -6 -19 -5 -21 3 -10 9 13 11 12 12
-5 0 -20 1 -20 8 0 6 15 9 10 14 -24 5 -42 26 -74 59 -92 14 -7 16 -6 12 6 -5
13 -2 13 30 0 73 -31 224 -12 357 44 40 17 77 28 82 24 6 -3 7 -1 4 4 -4 6 0
14 9 17 8 3 12 2 9 -4 -4 -6 5 -5 19 1 14 7 23 16 19 22 -3 6 -1 7 6 3 6 -4
38 9 70 28 62 38 77 43 65 25 -4 -7 17 6 47 28 30 22 54 45 54 51 0 6 4 14 9
19 5 5 6 3 2 -4 -14 -26 8 -12 73 45 36 32 107 90 157 129 50 40 99 83 110 97
27 38 39 32 14 -6 l-22 -33 27 30 c15 17 45 49 65 72 21 23 40 39 44 36 3 -4
6 -1 6 5 0 7 6 12 13 12 7 0 23 14 36 30 12 17 26 28 32 25 5 -4 12 1 15 10 4
8 12 14 18 13 7 -2 40 25 74 60 34 34 63 60 63 57 1 -3 3 -9 4 -15 1 -5 3 -17
4 -25 0 -8 9 -15 19 -15 13 0 14 2 4 9 -9 5 -11 17 -6 35 6 27 24 46 24 26 0
-7 7 -9 16 -6 9 4 24 1 33 -6 14 -11 14 -11 4 3 -15 18 -8 30 13 22 10 -4 12
-13 8 -27 -6 -17 -4 -19 7 -9 10 8 20 9 29 3 8 -6 10 -10 4 -10 -7 0 -14 -11
-16 -24 -3 -16 0 -23 11 -22 14 1 18 -7 41 -101 6 -24 16 -43 22 -43 6 0 8 9
5 22 -4 12 -1 28 5 35 8 11 7 12 -6 7 -14 -6 -17 -2 -15 17 2 13 0 29 -4 35
-4 7 0 18 9 25 8 7 14 8 12 3 -1 -5 3 -19 10 -30 6 -12 8 -25 4 -30 -4 -5 0
-3 10 4 13 10 17 10 21 0 3 -7 5 -2 4 12 -2 29 23 38 46 16 8 -8 17 -12 21 -9
7 7 36 -16 36 -29 0 -5 -4 -6 -10 -3 -5 3 -10 1 -10 -4 0 -6 -25 -12 -57 -12
-34 -1 -46 -4 -28 -6 16 -3 33 -10 37 -16 6 -9 8 -9 8 -1 0 7 17 14 39 16 23
2 38 -1 36 -7 -8 -39 -18 -65 -25 -65 -5 0 -12 -15 -15 -32 -4 -18 -14 -46
-22 -61 -8 -16 -12 -31 -9 -34 2 -3 14 18 27 46 22 53 26 55 79 45 l32 -7 -5
-53 c-4 -41 -2 -54 8 -54 8 0 11 7 9 18 -3 9 2 33 10 52 l15 35 2 -30 c2 -26
2 -27 6 -6 4 19 7 21 14 10 7 -12 9 -12 9 1 0 13 23 15 145 16 97 1 145 -2
145 -10 0 -5 7 -3 16 6 15 15 21 15 63 2 55 -17 54 -16 46 -4 -11 18 49 6 115
-23 21 -8 22 -11 8 -14 -27 -7 -21 -21 6 -16 19 4 25 0 30 -22 8 -32 1 -45
-25 -45 -11 0 -18 -4 -15 -8 3 -5 -2 -22 -10 -38 -9 -16 -15 -31 -15 -34 0 -4
-50 -103 -93 -185 -9 -16 -16 -34 -16 -38 0 -14 -82 -127 -91 -127 -5 0 -18
-9 -30 -21 -23 -23 -55 -18 -64 12 -4 10 -12 19 -18 20 -7 0 -3 4 8 9 15 6 16
9 4 9 -31 2 -49 -33 -50 -98 -1 -33 -4 -61 -8 -61 -3 0 -24 10 -46 23 -40 23
-91 87 -97 121 -2 11 -11 20 -21 22 -17 2 -17 1 -4 -14 9 -9 19 -30 22 -45 5
-17 34 -51 73 -85 35 -31 91 -81 123 -109 33 -29 68 -53 79 -53 28 0 68 28 85
59 13 25 13 23 10 -27 -5 -75 -18 -88 -59 -60 l-31 21 25 -26 c27 -28 53 -38
55 -22 1 6 5 17 8 25 4 8 18 69 31 136 24 121 47 180 112 281 18 28 43 71 55
95 19 38 23 41 30 23 5 -14 8 -15 9 -5 3 36 11 64 20 75 5 7 7 15 3 18 -3 4 1
7 9 7 11 0 14 6 11 20 -3 12 0 20 7 20 7 0 10 8 7 19 -6 24 26 56 44 45 9 -5
10 -2 6 12 -5 14 -2 12 13 -6 11 -14 20 -29 20 -34 0 -5 2 -7 5 -4 3 3 -2 22
-10 42 -9 20 -13 41 -10 46 3 4 -1 10 -7 13 -18 7 132 0 157 -7 11 -3 58 -15
105 -27 98 -24 150 -44 150 -59 0 -5 -4 -10 -9 -10 -5 0 -12 -7 -15 -16 -3 -8
-2 -12 4 -9 6 3 7 -1 4 -9 -3 -9 -10 -14 -14 -11 -4 3 -11 -2 -14 -11 -3 -8
-2 -12 4 -9 15 9 12 -1 -10 -45 -24 -47 -25 -57 -5 -40 13 11 14 10 9 -4 -10
-27 3 -18 25 18 23 36 27 51 11 41 -5 -3 -10 -1 -10 4 0 6 7 11 15 11 8 0 22
11 31 25 9 14 20 22 25 20 4 -3 20 -3 34 1 20 5 23 9 13 15 -10 7 -10 9 0 9 7
0 15 -7 18 -15 4 -8 13 -15 21 -15 8 0 44 -16 79 -36 37 -21 64 -31 64 -24 0
9 4 9 13 3 6 -6 25 -13 40 -17 17 -4 25 -11 21 -18 -4 -6 -3 -8 4 -5 5 4 45
-11 87 -33 84 -44 90 -46 79 -28 -4 7 -3 8 5 4 6 -4 9 -11 6 -16 -3 -4 20 -20
50 -35 30 -16 55 -34 55 -42 0 -11 3 -11 13 -1 8 7 12 20 9 30 -5 19 39 68 61
68 8 0 20 -7 27 -15 16 -19 31 -20 24 -1 -4 11 0 13 15 9 12 -3 21 -13 21 -25
0 -10 4 -17 9 -14 26 17 49 -63 27 -96 -15 -22 -48 -159 -41 -166 4 -5 25 68
25 88 0 8 15 40 34 72 19 31 32 59 29 62 -4 3 -2 6 4 6 15 0 23 -24 13 -40
-13 -20 -2 -32 19 -20 10 5 21 6 25 3 3 -3 6 1 6 10 0 9 6 17 14 17 11 0 8
-12 -11 -47 l-26 -48 25 25 c14 14 23 28 21 33 -10 17 29 18 43 1 13 -17 13
-17 3 7 -14 34 12 69 47 63 15 -3 28 3 37 16 14 21 15 21 39 -9 l25 -29 13 39
c7 21 10 42 7 46 -4 3 -2 12 4 20 6 7 7 13 2 13 -5 0 -9 10 -8 22 1 18 8 23
31 23 27 1 29 3 30 40 0 43 30 99 47 88 6 -3 7 -1 3 5 -8 13 57 89 85 97 10 4
26 21 35 40 11 24 27 38 51 46 22 7 31 14 23 19 -8 5 -8 9 4 13 8 3 17 1 20
-6 3 -7 5 -6 5 3 1 24 35 47 65 44 14 -1 24 1 21 7 -3 5 1 6 9 3 10 -4 16 -1
16 8 0 8 10 20 23 26 39 21 146 52 188 56 22 2 43 6 46 10 4 4 13 -4 20 -16
10 -18 12 -20 13 -5 0 33 15 17 38 -43 34 -86 52 -80 52 15 0 71 1 75 23 75
12 0 29 5 37 10 11 7 5 10 -22 10 -32 0 -38 3 -39 23 -1 12 -1 26 0 31 1 5 -4
13 -11 17 -11 7 -10 9 1 9 7 0 11 6 7 15 -7 18 5 20 23 3 11 -11 13 -10 8 5
-4 10 -3 27 3 37 5 9 92 68 192 131 271 167 623 406 707 479 31 27 31 27 81
-129 21 -64 39 -111 39 -105 1 10 -60 218 -74 257 -7 15 188 183 210 181 10
-1 11 6 4 30 -6 17 -21 73 -34 124 l-25 92 39 78 c53 104 85 183 111 272 29
97 39 124 46 117 3 -2 -2 -33 -11 -67 -9 -34 -14 -64 -12 -67 3 -2 13 31 23
74 10 43 25 87 34 98 39 49 45 60 17 36 l-27 -24 0 87 c0 146 -37 258 -115
344 -50 55 -126 101 -205 122 -63 17 -268 21 -334 8 -31 -7 -58 -9 -62 -6 -3
4 -6 24 -6 45 0 21 -2 42 -5 47 -4 5 -7 25 -8 45 -1 20 -10 65 -19 101 -10 36
-17 75 -17 86 1 31 -35 38 -54 11 -8 -12 -15 -17 -15 -11 0 6 10 21 22 34 14
14 16 22 7 18 -8 -3 -24 1 -34 9 -19 14 -17 15 18 11 45 -5 48 4 6 19 -21 8
-30 17 -26 26 3 8 1 19 -4 24 -15 15 -29 73 -18 73 6 0 7 6 2 13 -4 6 -8 17
-9 22 -1 6 -5 19 -9 30 -5 16 -3 15 7 -3 l14 -23 12 26 c10 21 9 27 -4 32 -12
4 -12 8 -4 13 9 5 6 10 -9 15 -17 5 -19 10 -11 26 8 15 7 23 -5 36 -9 9 -14
24 -12 34 3 11 0 19 -7 19 -6 0 -17 9 -24 21 -11 16 -16 18 -28 9 -9 -8 -14
-9 -14 -2 0 6 4 12 10 14 5 2 7 13 4 25 -4 13 -10 20 -15 17 -5 -3 -12 1 -15
9 -3 8 -17 15 -31 15 -14 0 -21 -3 -17 -7 5 -3 10 -13 11 -21 3 -16 30 -132
33 -140 1 -3 1 -14 1 -26 -1 -11 8 -45 19 -75 12 -30 23 -61 25 -69 2 -8 6
-23 10 -32 8 -21 -5 -24 -23 -6 -18 18 -16 -12 4 -62 11 -28 21 -39 31 -36 9
4 11 2 7 -6 -5 -8 -2 -9 11 -4 15 5 16 4 6 -8 -7 -8 -8 -15 -2 -18 5 -1 11
-10 13 -18 2 -8 7 -18 11 -21 4 -3 9 -19 10 -35 2 -23 -2 -28 -15 -26 -22 3
-22 2 -4 -40 31 -73 48 -141 47 -181 -2 -46 -2 -85 3 -222 2 -49 -2 -130 -9
-180 -14 -93 -56 -251 -78 -289 -6 -11 -12 -25 -13 -31 -2 -25 -19 -73 -35
-102 -10 -17 -15 -33 -12 -36 2 -3 -7 -13 -21 -22 -14 -10 -26 -25 -26 -35 0
-31 -30 -104 -73 -175 -23 -38 -42 -73 -43 -77 -1 -5 -2 -11 -3 -15 0 -5 -13
-21 -28 -38 -14 -16 -23 -22 -20 -12 4 9 2 17 -3 17 -6 0 -10 7 -10 15 0 8 4
15 8 15 4 0 16 14 26 31 14 24 21 28 27 18 7 -12 9 -11 10 1 1 8 1 18 0 22 0
4 13 38 30 75 17 37 40 95 51 128 11 33 31 71 44 85 16 17 28 50 38 100 8 41
22 98 30 125 20 64 20 124 0 175 -14 35 -34 54 -34 32 0 -5 -9 -18 -20 -30
-12 -12 -16 -23 -10 -27 6 -4 7 -13 1 -23 -5 -10 -8 -60 -6 -113 4 -108 -9
-152 -19 -68 -10 73 -25 111 -45 107 -17 -3 -39 -42 -46 -81 -12 -62 -19 -84
-32 -111 -9 -16 -17 -43 -20 -60 -3 -17 -9 -35 -13 -40 -5 -5 -6 0 -3 13 3 11
1 21 -5 21 -12 0 -33 -56 -25 -64 4 -3 1 -6 -5 -6 -7 0 -11 -3 -10 -7 1 -5 -6
-35 -16 -67 -10 -33 -15 -72 -12 -88 4 -20 2 -26 -8 -22 -17 7 -29 -36 -20
-73 5 -23 4 -26 -7 -16 -10 11 -19 -6 -47 -90 -41 -125 -42 -130 -48 -192 -2
-27 -15 -81 -28 -120 -13 -38 -20 -72 -15 -73 11 -4 116 85 154 130 14 16 28
42 31 56 11 51 15 59 23 40 5 -14 11 -11 37 20 17 20 39 49 48 65 10 15 22 27
26 27 9 0 0 -42 -10 -50 -4 -3 -13 -17 -21 -31 -31 -58 -105 -159 -116 -159
-6 0 -18 -9 -26 -21 -49 -70 -373 -377 -435 -412 -11 -7 -54 -38 -96 -69 -42
-32 -78 -58 -81 -58 -14 0 -128 -81 -178 -127 -32 -29 -63 -53 -68 -53 -16 0
-64 -40 -64 -53 0 -5 -13 -14 -30 -20 -16 -5 -69 -24 -116 -43 -72 -28 -142
-48 -287 -80 -13 -2 -20 -9 -17 -13 6 -10 -167 -27 -230 -23 -22 1 -49 6 -60
11 -80 35 -139 49 -294 66 -30 4 -63 11 -72 16 -10 5 -27 9 -39 9 -12 0 -18 4
-15 10 4 6 3 10 -2 9 -32 -6 -72 3 -77 17 -5 12 -2 15 11 10 17 -6 17 -5 0 8
-21 17 -128 49 -227 69 -100 20 -180 43 -194 57 -8 8 1 9 33 4 l44 -7 -23 31
c-13 17 -29 33 -37 36 -12 5 -98 59 -190 120 -51 33 -46 46 7 17 27 -14 51
-23 54 -20 8 7 -71 92 -104 112 -14 8 -43 18 -65 21 l-40 6 50 -46 50 -46 -60
42 c-33 23 -112 76 -175 118 -63 41 -140 95 -171 119 -30 23 -58 43 -62 43 -3
0 -32 16 -63 34 -32 19 -60 33 -64 31 -15 -9 -202 189 -274 293 -55 78 -85
112 -98 112 -18 0 -43 22 -108 95 -25 28 -52 84 -45 94 8 15 -12 57 -54 114
-48 65 -92 143 -84 151 4 3 2 6 -4 6 -6 0 -14 -8 -17 -17 -4 -10 -4 -14 0 -10
4 3 17 -12 29 -36 25 -50 48 -90 55 -97 7 -7 40 -67 40 -73 0 -3 -9 -3 -20 0
-11 3 -20 12 -20 19 0 8 -5 14 -11 14 -6 0 -8 7 -5 16 3 9 2 12 -5 8 -12 -7
-59 33 -59 51 0 7 -9 20 -20 30 -11 10 -17 22 -14 26 8 13 -10 11 -25 -3 -11
-11 -11 -9 -2 9 14 28 14 30 -6 37 -10 4 -15 4 -11 1 3 -4 0 -22 -8 -42 -11
-24 -11 -33 -3 -27 8 5 10 1 7 -12 -13 -45 -13 -49 2 -46 8 2 12 0 8 -4 -4 -4
2 -23 14 -43 l21 -36 -28 25 -28 25 30 -45 c26 -40 29 -53 28 -112 -1 -37 2
-65 7 -62 7 5 35 -50 55 -113 9 -26 8 -33 -4 -37 -19 -8 -38 -8 -30 0 3 3 -10
30 -29 59 -19 31 -31 60 -28 70 5 11 2 14 -10 9 -11 -4 -23 1 -31 12 -27 35
-116 198 -122 223 -3 14 -11 33 -18 41 -20 24 -47 81 -41 87 3 4 -1 11 -9 17
-17 13 -34 72 -17 62 6 -3 15 1 20 11 9 15 12 15 28 3 16 -14 16 -13 5 8 -6
12 -8 22 -4 22 4 0 -2 6 -12 14 -16 11 -17 17 -7 29 8 9 9 18 3 21 -5 3 -11 0
-14 -6 -5 -16 -4 -17 -51 55 -20 31 -40 74 -42 95 -5 34 -2 30 35 -37 22 -41
45 -79 52 -85 6 -6 -12 32 -40 85 -31 59 -51 109 -52 130 0 28 -2 30 -9 14 -4
-11 -6 -38 -4 -60 4 -36 3 -37 -7 -15 -6 14 -8 38 -5 53 3 15 2 26 -2 23 -9
-5 -9 -5 -16 139 l-6 110 27 -110 c15 -60 30 -112 33 -115 4 -3 14 -30 24 -60
10 -30 40 -97 67 -149 27 -52 49 -98 49 -102 0 -4 14 -23 30 -41 37 -40 38
-32 4 33 -14 28 -24 52 -22 54 2 2 34 17 71 35 70 33 90 33 70 1 -10 -16 -8
-17 12 -13 25 4 40 28 24 37 -5 4 -7 11 -3 16 3 5 1 15 -4 22 -5 7 -8 55 -7
107 1 61 -2 98 -9 102 -8 5 -7 8 2 8 17 0 15 17 -2 23 -11 4 -13 -2 -10 -28 2
-19 0 -36 -6 -40 -5 -3 -7 -12 -3 -20 3 -9 -1 -15 -8 -15 -8 0 -5 -6 7 -15 10
-8 14 -15 7 -15 -12 0 -14 -60 -3 -60 3 0 6 -13 6 -30 2 -28 -4 -33 -76 -69
l-77 -40 -21 37 c-26 48 -96 223 -134 337 -28 85 -46 195 -49 315 l-2 55 -6
-55 -7 -55 -8 90 c-10 105 -1 292 15 311 8 10 8 14 1 14 -17 0 -26 -21 -29
-65 -7 -125 0 -283 16 -380 10 -60 15 -117 11 -125 -4 -8 -6 -43 -5 -77 1 -40
-2 -60 -8 -56 -6 3 -7 1 -3 -5 4 -6 9 -24 11 -39 2 -16 6 -41 10 -58 l6 -30
-20 35 c-11 19 -37 79 -57 132 -21 54 -39 96 -41 94 -6 -5 57 -167 95 -244 33
-68 96 -278 88 -297 -2 -7 -13 -15 -24 -17 -17 -5 -25 8 -56 90 -74 190 -114
385 -115 547 0 95 1 96 19 26 6 -23 13 -41 15 -39 2 2 -4 38 -14 80 -15 60
-17 86 -9 128 11 60 4 80 -7 23 l-8 -38 -8 40 c-17 88 -11 126 37 222 38 77
59 105 121 163 75 70 75 70 94 49 17 -20 17 -21 -14 -51 -30 -28 -30 -29 -3
-9 16 12 34 21 40 21 12 0 49 -50 46 -63 -1 -9 43 -47 54 -47 4 0 2 8 -3 19
-8 14 -5 21 14 31 14 7 26 20 26 29 1 9 2 24 3 33 1 10 5 17 10 17 15 -1 26
25 20 45 -4 11 -2 16 4 12 5 -3 12 -15 15 -26 3 -11 2 -18 -3 -15 -12 7 -19
-18 -13 -48 4 -17 1 -27 -7 -27 -7 0 -10 -7 -7 -15 4 -8 2 -17 -3 -20 -14 -8
-12 -62 2 -88 11 -21 10 -21 -7 -7 -18 14 -18 13 0 -16 36 -58 105 -144 116
-144 6 0 7 6 3 13 -4 6 2 3 14 -7 12 -11 22 -14 22 -8 0 7 -4 12 -10 12 -5 0
-10 5 -10 10 0 6 6 9 13 8 7 -2 11 7 10 25 -1 18 3 27 13 27 8 0 14 8 14 19 0
51 104 252 210 405 43 63 63 87 67 82 2 -2 -17 -35 -44 -73 -54 -75 -128 -211
-119 -220 5 -5 46 56 46 70 0 4 7 7 16 7 8 0 12 5 9 10 -3 6 1 13 9 16 9 3 16
12 16 20 0 8 5 14 11 14 5 0 7 5 4 10 -3 6 -1 10 4 10 6 0 11 6 11 13 0 7 15
35 34 62 19 28 42 62 51 77 8 15 28 41 43 56 15 16 39 42 53 58 46 51 262 257
330 314 77 65 176 117 314 166 l100 35 -60 -5 -60 -5 55 18 c64 21 136 38 200
46 66 9 82 15 118 46 32 28 46 33 88 30 11 -1 40 6 65 16 24 11 55 18 68 17
21 -1 55 9 154 47 15 6 27 14 27 19 0 4 18 10 40 14 22 3 40 11 40 16 0 6 10
10 23 10 13 0 32 7 43 15 18 14 16 15 -21 10 -100 -12 -127 -14 -121 -7 4 4
11 7 14 8 4 0 18 4 32 7 14 4 58 9 98 11 93 6 172 31 172 55 0 13 14 21 58 32
31 7 80 25 107 40 34 18 74 29 125 34 133 12 215 14 230 5 11 -7 3 -10 -26
-10 -58 0 -134 -11 -134 -20 0 -4 33 -5 74 -2 93 5 246 -18 246 -38 0 -4 -17
-4 -37 1 -79 18 -361 5 -384 -18 -4 -4 74 -8 174 -8 100 0 220 -3 267 -7 78
-6 82 -6 50 7 -30 11 -31 14 -11 14 13 1 42 -8 65 -18 23 -11 63 -28 90 -37
72 -26 42 -28 -65 -3 -141 32 -499 40 -499 11 0 -4 40 -18 90 -31 49 -13 87
-27 85 -32 -6 -8 85 -39 116 -39 9 0 22 -7 29 -15 7 -8 15 -13 19 -10 4 2 20
-3 35 -11 33 -16 58 -19 36 -3 -12 9 -11 9 5 3 11 -4 29 -8 40 -9 11 -1 36 -9
55 -18 50 -22 189 -65 194 -59 9 8 -39 72 -59 78 -23 7 -55 33 -55 45 0 10 75
-17 105 -38 11 -7 36 -18 57 -23 20 -6 51 -24 68 -40 18 -17 35 -30 39 -30 4
0 12 -13 18 -29 10 -28 73 -72 73 -52 0 5 -6 12 -12 14 -9 4 -7 6 3 6 31 2 77
-21 82 -40 3 -13 11 -17 21 -13 11 4 16 1 16 -10 0 -9 3 -15 8 -14 4 1 20 -4
35 -10 16 -7 32 -12 37 -12 18 0 150 -73 150 -83 0 -6 3 -8 6 -4 4 3 24 -3 45
-13 21 -11 47 -20 59 -20 11 0 20 -4 20 -9 0 -6 9 -8 20 -6 11 2 20 -1 20 -7
0 -6 3 -8 6 -5 4 3 15 2 25 -4 24 -12 24 -4 0 29 -19 27 -21 33 -21 53 0 5 -5
7 -12 3 -6 -4 -8 -3 -5 3 4 6 -3 19 -14 29 -48 43 -38 55 11 14 78 -65 102
-61 59 9 l-20 33 28 -6 c21 -5 24 -4 13 4 -8 5 -11 10 -6 10 5 0 3 7 -4 15
-23 27 15 30 74 6 21 -9 32 -9 42 0 21 17 17 34 -3 18 -16 -13 -17 -12 -4 4 7
9 20 17 27 17 8 0 14 4 14 9 0 11 70 45 77 38 3 -3 -9 -13 -26 -22 -17 -8 -31
-18 -31 -20 0 -3 17 3 38 14 20 10 41 19 46 19 5 0 13 6 17 14 7 10 11 10 17
1 5 -8 11 -4 19 13 6 13 7 22 2 18 -5 -3 -9 2 -9 10 0 17 117 79 131 70 5 -3
9 -1 9 5 0 14 52 40 135 67 39 13 63 23 54 24 -9 0 -29 -4 -45 -10 -44 -14
-95 -19 -88 -9 3 5 9 9 14 9 5 0 25 15 45 34 36 36 98 56 173 56 33 1 35 2 20
14 -25 18 -23 23 12 31 16 4 32 11 36 16 3 6 -5 7 -23 3 -15 -4 -37 -8 -48 -8
-11 -1 -23 -5 -26 -10 -4 -4 -9 -4 -13 2 -3 6 0 17 8 25 8 8 12 17 9 21 -4 3
1 6 11 6 9 0 15 4 12 9 -4 5 4 7 16 3 21 -5 22 -4 9 11 -12 15 -11 17 3 18 29
3 34 4 42 12 4 4 17 7 29 7 11 0 25 4 30 9 12 11 83 22 145 23 52 1 120 -5
115 -11 -2 -2 2 -10 10 -18 10 -10 15 -36 15 -78 l0 -64 -46 19 c-25 11 -55
20 -67 19 -12 0 12 -14 55 -31 72 -29 78 -30 107 -15 l30 15 7 -34 c3 -19 4
-48 2 -64 -3 -18 1 -35 9 -41 11 -9 13 2 13 62 0 55 -3 70 -11 59 -8 -12 -9
-10 -5 10 3 14 6 34 7 45 l0 20 9 -20 c18 -42 11 -189 -15 -296 -14 -57 -30
-112 -35 -121 -5 -10 -7 -24 -4 -33 4 -11 2 -14 -9 -10 -9 4 -16 -1 -19 -13
-4 -15 -1 -18 13 -15 45 12 184 203 263 361 59 117 60 133 1 24 -24 -45 -51
-90 -60 -98 -8 -9 -22 -29 -30 -45 -9 -16 -18 -29 -21 -29 -3 0 -2 4 1 10 3 5
8 20 10 32 3 12 9 24 13 27 11 7 52 87 76 146 18 46 9 36 -47 -50 -44 -69 -59
-66 -74 18 -7 37 -22 88 -33 114 -27 62 -36 226 -11 221 9 -2 23 3 31 10 8 7
27 23 42 35 14 12 29 33 33 47 5 19 4 22 -4 10 -9 -13 -11 -12 -12 5 0 20 -1
20 -8 0 -6 -15 -9 -10 -14 24 -5 43 -26 74 -61 93 -16 9 -18 7 -13 -6 5 -14 3
-15 -13 -6 -60 32 -188 26 -312 -16 -26 -8 -53 -12 -59 -8 -7 4 -9 3 -6 -3 8
-13 -20 -26 -35 -16 -6 3 -8 1 -5 -4 4 -6 0 -14 -9 -17 -22 -8 -26 -8 -19 4 3
6 -1 7 -9 4 -9 -3 -13 -11 -9 -17 3 -5 1 -7 -5 -3 -9 6 -42 -11 -152 -77 -27
-17 -32 -17 -21 -4 7 9 9 17 3 17 -12 0 -34 -25 -27 -32 3 -3 -3 -11 -12 -19
-16 -13 -17 -12 -4 4 7 9 9 17 3 17 -15 0 -33 -26 -24 -35 4 -5 1 -5 -6 -1 -8
5 -22 0 -35 -12 -12 -11 -28 -22 -36 -24 -8 -2 -31 -17 -50 -35 -20 -17 -78
-68 -128 -113 -51 -45 -93 -79 -93 -75 0 4 -9 -3 -20 -16 -10 -13 -19 -19 -20
-14 0 13 26 52 58 87 14 15 23 30 20 33 -2 3 -36 -34 -74 -82 -70 -89 -160
-183 -175 -183 -4 0 -11 -10 -14 -21 -4 -12 -20 -35 -35 -51 -16 -16 -32 -43
-35 -59 -8 -35 -21 -45 -41 -28 -8 6 -18 8 -22 4 -4 -4 -1 -10 6 -12 6 -3 12
-9 12 -14 0 -6 -6 -7 -12 -2 -7 4 -17 8 -23 9 -5 1 -33 9 -62 19 -44 14 -51
20 -48 40 2 23 -18 40 -35 30 -5 -3 -7 11 -4 30 2 19 0 35 -5 35 -5 0 -16 3
-25 6 -9 3 -16 1 -16 -6 0 -6 5 -8 10 -5 6 3 10 1 10 -4 0 -13 -10 -14 -29 -2
-10 7 -11 13 -1 31 11 20 10 22 -5 16 -12 -4 -16 -2 -12 8 4 10 -2 17 -16 22
-12 4 -44 17 -72 31 -27 13 -56 21 -63 18 -8 -3 -16 3 -19 13 -5 21 -43 27
-43 6 0 -19 -9 -18 -48 6 -20 12 -32 26 -29 34 3 8 -8 20 -28 29 -36 17 -45
14 -45 -15 0 -16 -3 -17 -21 -8 -25 14 -53 5 -43 -12 5 -9 3 -9 -9 1 -20 16
-23 26 -4 15 8 -5 7 -2 -2 10 -8 9 -20 15 -26 12 -7 -2 -19 1 -26 7 -8 7 -3 0
10 -15 18 -20 20 -28 10 -28 -23 0 -59 29 -59 48 0 10 -9 23 -20 30 -26 16
-28 -3 -3 -30 16 -18 16 -19 -27 -17 -25 2 -49 9 -55 16 -5 7 -27 15 -48 18
-48 6 -80 23 -71 37 4 7 9 6 15 -3 6 -10 9 -10 9 -2 0 7 7 10 18 7 15 -5 15
-4 -1 6 -14 9 -16 15 -7 25 22 26 5 40 -19 16 -29 -29 -53 -23 -63 17 -5 18
-15 32 -23 32 -16 0 -20 -20 -7 -36 4 -5 0 -1 -10 8 -18 20 -38 24 -38 8 0 -5
5 -10 10 -10 24 0 7 -18 -20 -22 -16 -3 -30 0 -30 5 0 6 -3 8 -6 4 -4 -3 -29
10 -58 29 -28 18 -54 34 -58 34 -17 0 -7 -19 13 -25 11 -4 18 -9 15 -12 -3 -3
-26 9 -52 26 -63 41 -85 41 -47 -1 10 -11 13 -19 8 -18 -6 2 -12 2 -15 0 -18
-6 -228 -5 -224 1 7 11 -3 11 -45 -1 -33 -9 -33 -9 -15 11 18 20 18 20 -11 9
-17 -7 -54 -15 -82 -19 -46 -7 -51 -6 -40 8 10 12 9 14 -8 7 -39 -15 -167 -28
-213 -21 -40 6 -44 9 -24 16 22 8 32 49 11 49 -5 0 -8 4 -4 9 3 5 1 12 -5 16
-5 3 -10 -1 -10 -9 0 -9 -5 -16 -11 -16 -6 0 -8 -7 -4 -17 5 -15 4 -16 -6 -5
-7 6 -21 12 -31 12 -10 0 -17 3 -17 8 3 20 -3 23 -18 11 -15 -13 -16 -11 -10
11 4 14 9 43 12 65 4 37 3 35 -13 -15 -17 -53 -44 -79 -81 -80 -16 0 -9 68 15
138 17 51 18 142 3 214 -13 57 -32 94 -62 119 -19 16 -19 17 2 123 16 82 19
111 10 128 -8 14 -8 18 0 14 7 -5 11 6 11 33 0 34 -4 41 -22 45 -45 9 -58 4
-47 -16z m-236 -329 c11 -17 -1 -21 -15 -4 -8 9 -8 15 -2 15 6 0 14 -5 17 -11z
m25 -68 c5 -11 7 -27 4 -35 -11 -27 -22 -17 -22 19 0 40 3 43 18 16z m268 -46
c-3 -3 -9 2 -12 12 -6 14 -5 15 5 6 7 -7 10 -15 7 -18z m42 -57 c0 -5 -4 -8
-10 -8 -5 0 -10 10 -10 23 0 18 2 19 10 7 5 -8 10 -18 10 -22z m0 -58 c0 -22
-2 -40 -4 -40 -2 0 -6 18 -8 40 -2 22 0 40 4 40 5 0 8 -18 8 -40z m3610 -8
c45 -22 54 -66 18 -90 -28 -20 -57 -27 -39 -9 6 6 11 18 11 26 0 11 -4 10 -20
-4 -11 -10 -17 -21 -15 -25 3 -4 -10 -4 -28 0 -17 4 -31 12 -30 17 1 6 -4 16
-11 22 -10 8 -17 7 -26 -4 -14 -17 -60 -21 -60 -5 0 6 7 13 16 17 9 3 15 16
14 32 -1 14 -2 29 -1 34 2 15 136 7 171 -11z m-257 -9 c-7 -2 -21 -2 -30 0
-10 3 -4 5 12 5 17 0 24 -2 18 -5z m-30 -37 c4 -10 1 -13 -8 -10 -8 3 -12 -1
-12 -12 2 -14 -18 -24 -93 -47 -52 -16 -97 -33 -100 -37 -9 -13 -70 -41 -79
-36 -5 3 -20 -3 -33 -14 -14 -11 -28 -16 -32 -13 -3 3 -6 1 -6 -5 0 -7 -5 -12
-11 -12 -5 0 -27 -11 -47 -25 -39 -27 -62 -33 -40 -12 58 59 340 222 365 212
7 -2 13 1 13 6 0 6 9 9 20 6 11 -3 20 -1 20 4 0 15 37 10 43 -5z m364 -38 c-3
-8 -6 -5 -6 6 -1 11 2 17 5 13 3 -3 4 -12 1 -19z m-322 -17 c-3 -6 13 -8 39
-6 24 2 55 1 67 -2 22 -6 21 -7 -11 -18 -22 -8 -44 -9 -58 -4 -15 6 -21 5 -17
-1 3 -6 1 -10 -5 -10 -6 0 -13 7 -16 15 -5 11 -11 12 -24 5 -33 -17 -36 -11
-5 9 35 23 38 24 30 12z m-145 -37 c0 -7 -66 -34 -82 -33 -7 0 5 9 27 20 42
19 55 23 55 13z m333 -58 c-4 -5 1 -7 10 -3 11 4 18 -1 22 -14 4 -11 11 -16
17 -13 8 5 9 1 5 -10 -4 -10 -7 -38 -7 -63 l0 -45 -30 25 c-16 14 -45 31 -64
38 -39 14 -57 49 -25 49 10 0 19 7 19 15 0 8 -7 15 -16 15 -8 0 -13 -4 -10 -8
3 -5 -1 -9 -9 -9 -8 0 -12 4 -9 9 3 4 -1 9 -8 10 -15 1 69 14 94 14 9 0 14 -4
11 -10z m-113 -51 c11 -13 4 -15 -61 -15 -41 0 -85 -3 -99 -7 -14 -3 -22 -3
-18 1 8 10 94 32 134 34 18 2 37 -4 44 -13z m-600 -60 c-7 -8 -20 -15 -29 -15
-11 0 -8 5 9 14 33 19 35 19 20 1z m-2730 -5 c-14 -4 -38 -8 -55 -9 -23 0 -26
2 -15 9 8 5 33 9 55 9 35 -1 37 -2 15 -9z m3465 -62 c20 -35 16 -44 -11 -22
-10 8 -13 13 -6 9 17 -8 15 10 -2 24 -23 19 -25 -9 -3 -47 19 -31 19 -34 2
-52 -34 -37 -46 -26 -43 40 2 33 6 60 10 60 4 0 5 9 3 20 -3 16 -1 18 14 8 10
-6 26 -24 36 -40z m-3578 36 c-3 -3 -12 -4 -19 -1 -8 3 -5 6 6 6 11 1 17 -2
13 -5z m-1839 -31 c-15 -2 -42 -2 -60 0 -18 2 -6 4 27 4 33 0 48 -2 33 -4z
m-153 -21 c-3 -3 -11 0 -18 7 -9 10 -8 11 6 5 10 -3 15 -9 12 -12z m1848 1
c-18 -9 -33 -20 -33 -24 0 -9 -84 -48 -112 -52 -9 -2 -25 -10 -35 -19 -31 -28
-147 -78 -181 -78 -29 0 -32 2 -22 19 5 11 24 23 42 26 18 4 36 12 39 18 10
15 77 36 99 30 14 -4 20 0 20 10 0 19 29 36 48 30 6 -3 12 0 12 6 0 6 11 11
24 11 14 0 28 5 31 10 4 6 10 8 15 5 5 -3 22 1 37 9 16 8 33 15 38 15 6 0 -5
-8 -22 -16z m-1560 -14 c23 -8 33 -15 26 -20 -7 -4 3 -7 22 -7 44 1 184 -65
217 -102 12 -13 13 -13 7 0 -4 10 -2 9 8 -2 8 -10 17 -15 20 -11 4 3 7 1 7 -6
0 -7 4 -10 8 -7 4 2 16 -8 26 -23 10 -15 33 -35 50 -45 19 -12 26 -20 18 -23
-9 -4 -3 -15 19 -34 24 -21 28 -29 16 -29 -9 0 -17 8 -17 18 0 11 -3 13 -8 5
-6 -9 -19 -7 -52 8 -165 74 -316 87 -423 36 -32 -16 -76 -29 -98 -29 -21 0
-36 -4 -33 -9 3 -5 0 -9 -7 -9 -7 0 -9 8 -5 23 4 12 8 31 10 42 1 11 8 31 15
45 11 24 11 24 -4 5 -8 -10 -23 -44 -32 -75 -10 -33 -27 -65 -45 -81 -15 -14
-28 -32 -28 -40 0 -12 -2 -11 -10 1 -8 13 -10 12 -11 -5 -1 -17 -2 -17 -6 -2
-2 9 -9 14 -15 11 -6 -4 -5 2 1 15 7 11 16 21 21 21 6 0 10 4 10 9 0 4 -11 6
-25 3 -14 -2 -23 -7 -21 -10 3 -3 2 -10 -3 -16 -5 -6 -6 -30 -1 -53 4 -24 4
-43 0 -43 -13 0 -21 31 -14 53 4 12 2 17 -4 13 -16 -9 -25 30 -12 53 8 17 8
19 -4 15 -16 -6 -19 2 -35 88 -7 41 -5 53 18 92 32 55 91 103 137 112 19 3 34
10 34 14 0 10 -45 -2 -81 -20 -13 -7 -41 -29 -63 -49 -30 -28 -35 -30 -22 -10
20 32 66 66 114 85 44 17 216 13 275 -7z m-410 -124 c-3 -9 -8 -14 -10 -11 -3
3 -2 9 2 15 9 16 15 13 8 -4z m1547 -80 c0 -8 -9 -15 -21 -15 -11 0 -18 -4
-15 -9 6 -10 -18 -34 -26 -26 -3 3 -13 -4 -23 -15 -10 -11 -24 -20 -31 -20 -7
0 -19 -6 -26 -12 -7 -7 -33 -26 -58 -43 -25 -16 -48 -34 -51 -39 -4 -4 -10 -3
-13 3 -4 6 -2 11 4 11 6 0 8 5 5 10 -5 9 15 15 37 11 4 0 5 6 2 14 -5 11 1 15
19 15 18 0 29 8 38 29 14 31 35 45 83 56 23 5 26 9 16 15 -12 7 -9 11 10 19
36 14 50 13 50 -4z m-1563 -17 c-3 -8 -6 -5 -6 6 -1 11 2 17 5 13 3 -3 4 -12
1 -19z m668 -23 c71 -24 221 -98 206 -103 -6 -2 -18 1 -25 7 -8 7 -28 16 -45
21 -17 6 -45 14 -61 19 -19 6 -28 6 -25 0 4 -5 13 -9 21 -9 17 0 134 -58 134
-66 0 -4 -8 -4 -17 -1 -101 31 -151 42 -146 34 3 -5 0 -8 -8 -5 -8 3 -14 11
-14 18 0 7 -6 15 -14 18 -8 3 -11 0 -7 -7 10 -16 -1 -14 -74 14 l-65 24 55 1
c50 2 52 3 25 11 -16 5 -38 7 -48 5 -9 -2 -15 -1 -12 4 6 9 -25 23 -33 15 -3
-3 1 -5 8 -5 10 0 11 -3 3 -11 -8 -8 -35 -9 -83 -4 -39 4 -69 10 -66 13 3 3
27 11 53 18 59 17 170 12 238 -11z m-663 -24 c7 10 8 8 3 -8 -3 -12 -2 -37 2
-55 5 -19 4 -65 -2 -108 -11 -72 -11 -74 -18 -35 -4 22 -6 85 -6 140 1 55 4
89 6 76 4 -19 7 -21 15 -10z m2068 9 c0 -5 -4 -10 -10 -10 -5 0 -10 5 -10 10
0 6 5 10 10 10 6 0 10 -4 10 -10z m-80 -20 c-8 -5 -22 -9 -30 -9 -10 0 -8 3 5
9 27 12 43 12 25 0z m-1606 -32 c-16 -18 -22 -27 -14 -20 8 6 21 12 30 12 9
-1 6 -6 -10 -14 -14 -8 -28 -12 -32 -10 -4 3 -16 -4 -28 -16 -22 -22 -27 -35
-8 -24 7 4 8 3 4 -4 -4 -6 -14 -8 -23 -5 -10 4 -14 2 -10 -4 7 -11 -14 -63
-25 -63 -10 0 -10 5 3 60 5 25 21 62 35 83 22 33 29 37 66 37 l42 0 -30 -32z
m-95 -7 c-12 -16 -29 -58 -39 -92 -10 -35 -19 -56 -19 -46 -1 9 -5 17 -11 17
-15 0 -22 63 -11 93 6 16 24 34 43 42 52 22 61 19 37 -14z m3859 -18 c53 -29
110 -71 151 -111 36 -36 57 -58 46 -51 -11 8 -22 17 -25 20 -3 3 -65 47 -139
97 -74 51 -131 92 -127 92 4 0 47 -21 94 -47z m-3703 -3 c4 -6 -1 -7 -12 -3
-10 3 -15 3 -11 -2 4 -4 3 -14 -3 -21 -15 -19 2 -22 41 -8 30 11 34 20 7 15
-5 -1 -6 3 -2 9 4 7 11 8 18 1 11 -8 52 -9 112 -2 l20 2 -20 9 c-18 8 -18 9
-2 9 10 1 20 -5 23 -13 3 -7 22 -16 42 -20 49 -7 218 -107 215 -127 -2 -8 10
-19 27 -26 22 -8 28 -16 24 -28 -5 -11 0 -18 16 -22 l23 -6 -23 -17 c-17 -13
-20 -19 -10 -25 8 -5 11 -4 7 2 -4 6 0 13 8 17 21 8 28 -9 10 -24 -12 -10 -19
-10 -33 2 -9 8 -64 40 -122 71 -109 58 -255 107 -318 107 -28 0 -33 3 -24 12
7 7 51 15 98 18 75 4 82 6 63 18 -11 8 -18 9 -14 3 3 -6 1 -11 -4 -11 -6 0
-11 6 -11 13 0 9 -2 9 -8 1 -4 -7 -35 -12 -71 -13 -72 -1 -104 -8 -96 -22 11
-17 -8 -9 -32 13 -13 12 -23 17 -23 11 0 -6 -8 -14 -17 -17 -11 -4 -6 5 11 20
22 19 31 22 37 13 4 -7 5 -17 2 -23 -3 -5 -1 -6 5 -2 7 4 10 17 8 29 -5 34 24
62 39 37z m5338 -15 c-12 -9 -19 -10 -22 -3 -4 12 20 29 32 21 4 -3 0 -11 -10
-18z m-5604 -41 c-9 -22 -13 -25 -16 -12 -5 19 18 69 24 52 2 -6 -2 -24 -8
-40z m4601 38 c0 -5 -11 -14 -25 -20 -28 -13 -35 1 -7 17 21 13 32 14 32 3z
m-3840 -48 c0 -3 -6 -12 -14 -20 -16 -15 -32 -2 -21 16 7 11 35 14 35 4z
m-910 -34 c0 -5 -2 -10 -4 -10 -3 0 -8 5 -11 10 -3 6 -1 10 4 10 6 0 11 -4 11
-10z m865 -20 c3 -6 -1 -7 -9 -4 -18 7 -21 14 -7 14 6 0 13 -4 16 -10z m-238
-46 c41 -15 76 -31 79 -35 3 -5 13 -9 23 -9 10 0 28 -9 41 -20 12 -11 31 -22
41 -25 36 -12 10 -21 -53 -19 -87 2 -97 4 -73 13 28 11 -69 23 -220 27 -66 1
-121 3 -122 3 -12 4 45 51 61 51 19 0 19 0 1 14 -19 13 -18 15 15 28 43 18
105 9 207 -28z m-604 -45 c-5 -5 -9 -1 -9 9 -1 9 -4 26 -8 37 -4 11 0 7 9 -9
10 -16 13 -32 8 -37z m1414 45 c-3 -3 -12 -4 -19 -1 -8 3 -5 6 6 6 11 1 17 -2
13 -5z m-42 -14 c-4 -6 7 -8 27 -5 18 3 26 2 18 -1 -8 -4 -46 -22 -85 -41
l-70 -35 35 37 c22 22 42 34 52 32 10 -3 17 -2 16 2 -1 12 2 21 8 21 3 0 2 -4
-1 -10z m-1381 -82 c14 -9 1 -22 -13 -13 -6 3 -11 16 -10 28 0 15 2 17 6 7 3
-8 11 -18 17 -22z m391 2 c-30 -12 -53 -16 -59 -10 -5 5 0 11 15 14 56 12 65
14 79 14 8 1 -7 -8 -35 -18z m88 -7 c-7 -2 -19 -2 -25 0 -7 3 -2 5 12 5 14 0
19 -2 13 -5z m517 -34 c-22 -30 -44 -37 -56 -18 -8 14 29 44 57 46 19 2 19 1
-1 -28z m-554 2 c-10 -10 -33 -22 -52 -26 -20 -3 -43 -9 -52 -12 -15 -6 -15
-5 -3 10 7 9 20 17 28 17 8 0 12 4 9 8 -2 4 11 6 31 4 25 -3 34 -1 29 7 -4 6
0 11 10 11 16 0 16 -1 0 -19z m260 -3 l28 -13 -30 -7 c-24 -6 -22 -7 13 -5 23
1 39 -1 37 -5 -3 -5 5 -8 18 -8 13 -1 34 -7 48 -15 l25 -14 -25 -2 c-18 0 -12
-5 21 -14 72 -19 73 -22 43 -63 -34 -45 -43 -52 -61 -45 -7 3 -13 0 -13 -7 0
-6 5 -8 10 -5 6 3 10 1 10 -4 0 -6 -9 -11 -21 -11 -13 0 -18 -5 -14 -12 3 -7
0 -6 -6 3 -11 15 -15 15 -43 0 l-31 -15 38 -7 c20 -3 40 -9 43 -12 4 -4 -13
-36 -36 -72 -24 -36 -50 -81 -59 -98 -10 -19 -25 -33 -38 -35 -25 -4 -31 -18
-10 -25 6 -2 5 -3 -4 -2 -9 1 -23 -1 -30 -6 -10 -6 -7 -9 12 -9 16 0 26 -6 26
-15 0 -8 -3 -13 -6 -11 -3 2 -17 -1 -31 -6 -14 -6 -43 -11 -65 -13 -22 -1 -32
0 -22 2 27 7 20 18 -13 19 -17 1 -32 3 -35 5 -9 10 16 151 32 181 10 18 19 42
20 53 1 11 5 31 8 45 4 14 -3 5 -15 -20 -12 -25 -26 -52 -31 -60 -5 -8 -15
-26 -22 -40 -17 -36 -44 -63 -51 -52 -8 14 5 82 16 82 6 0 3 11 -6 25 -9 14
-14 30 -11 35 3 6 0 10 -7 10 -10 0 -9 3 1 9 12 8 9 11 -12 16 -34 9 -88 70
-81 90 4 8 1 15 -6 15 -17 0 7 29 35 41 17 8 16 9 -8 5 -24 -3 -28 0 -25 18 4
29 69 45 223 56 l120 8 -107 -2 c-84 -1 -104 2 -96 12 14 16 207 16 244 0z
m-702 -23 c3 -8 1 -15 -4 -15 -6 0 -10 7 -10 15 0 8 2 15 4 15 2 0 6 -7 10
-15z m874 -15 c19 -4 36 -11 40 -14 9 -10 -61 6 -93 20 -32 15 -26 14 53 -6z
m47 -40 c8 -13 -5 -13 -25 0 -13 8 -13 10 2 10 9 0 20 -4 23 -10z m-942 -77
c5 -26 4 -26 -9 -8 -15 21 -19 49 -5 41 5 -3 11 -18 14 -33z m-33 -123 c0 -5
-5 -10 -11 -10 -5 0 -7 5 -4 10 3 6 8 10 11 10 2 0 4 -4 4 -10z m-36 -59 c-18
-30 -34 -40 -34 -22 0 12 41 63 47 57 3 -2 -3 -18 -13 -35z m61 8 c10 -30 2
-32 -12 -3 -6 13 -7 24 -3 24 5 0 12 -9 15 -21z m-8 -116 c-9 -9 -20 -13 -24
-9 -4 4 0 13 9 20 10 7 16 15 14 18 -1 3 2 2 8 -3 7 -6 5 -15 -7 -26z m816 4
c-15 -19 -30 -32 -32 -30 -5 3 49 63 57 63 2 0 -9 -15 -25 -33z m-367 10 c3
-8 1 -32 -4 -55 -7 -29 -6 -42 2 -46 6 -2 1 -5 -11 -5 -36 -1 -29 -31 7 -31
17 0 30 -4 30 -10 0 -5 -16 -10 -35 -10 -19 0 -35 -4 -35 -8 0 -5 17 -8 37 -8
31 1 40 -4 51 -27 24 -49 60 -160 56 -171 -2 -6 -18 -17 -34 -24 -17 -8 -28
-19 -24 -25 3 -7 -2 -3 -10 8 -9 11 -14 25 -12 32 3 7 1 15 -5 18 -5 4 -22 34
-38 68 -23 48 -27 65 -18 77 6 8 7 12 3 8 -5 -4 -15 -3 -23 3 -10 9 -13 8 -13
-2 0 -10 -3 -10 -11 -2 -8 8 -9 24 -3 50 4 21 7 46 6 56 -1 9 3 17 9 17 8 0 8
4 0 13 -8 11 -5 19 13 35 13 11 28 17 32 14 4 -4 5 0 1 10 -9 26 19 41 29 15z
m-421 -37 c-3 -10 1 -33 9 -49 24 -45 19 -49 -9 -11 -28 38 -30 51 -13 68 17
17 20 15 13 -8z m-6 -107 c-6 -7 -8 -13 -4 -13 4 0 1 -8 -6 -17 -13 -16 -12
-17 3 -4 10 7 25 11 33 7 26 -10 16 -41 -26 -81 -47 -45 -123 -157 -145 -213
-14 -36 -14 -34 -9 50 7 127 44 282 85 358 12 22 13 21 46 -25 26 -37 31 -51
23 -62z m4821 24 c0 -4 -6 -2 -14 5 -8 7 -12 17 -9 22 5 8 23 -12 23 -27z
m-4275 -27 c-3 -5 1 -10 9 -10 9 0 16 -4 16 -8 0 -4 -16 -6 -35 -4 -40 5 -46
18 -12 25 12 2 23 5 25 6 2 0 0 -3 -3 -9z m4 -36 c40 -8 40 -22 -1 -26 l-33
-3 38 -17 c43 -20 47 -26 12 -23 -21 3 -23 1 -12 -16 8 -13 13 -15 19 -6 4 7
8 8 8 3 0 -13 -31 -46 -43 -46 -5 0 -7 11 -5 25 3 13 2 22 -2 20 -4 -3 -11 11
-14 31 -4 19 -10 42 -13 50 -6 16 1 17 46 8z m-209 -63 c0 -25 -18 1 -25 34
l-6 30 15 -25 c8 -14 15 -32 16 -39z m-329 -68 c-63 -63 -87 -96 -126 -173
-32 -66 -45 -84 -41 -60 13 70 78 183 144 248 35 34 72 62 82 62 14 0 -3 -22
-59 -77z m4952 -269 c11 -11 -3 -24 -18 -18 -8 4 -12 10 -9 15 6 11 18 12 27
3z m-5126 -46 c0 -18 5 -57 11 -87 7 -29 12 -86 11 -125 l-1 -71 -15 45 c-20
57 -27 270 -9 270 1 0 3 -15 3 -32z m-20 -70 c-3 -7 -5 -2 -5 12 0 14 2 19 5
13 2 -7 2 -19 0 -25z m5633 -290 c183 -63 281 -222 280 -457 -1 -140 -3 -145
-176 -297 l-62 -55 -11 33 c-20 56 -33 86 -127 278 -50 102 -95 201 -99 220
-11 52 -56 160 -66 160 -5 0 -9 6 -9 14 0 8 -8 17 -17 20 -15 6 -27 -3 -36
-29 -7 -17 -21 4 -24 38 -10 89 -17 80 77 93 103 14 196 8 270 -18z m127 -28
c61 -35 127 -100 153 -150 49 -95 79 -315 50 -360 -5 -8 -10 -13 -10 -10 0 3
-2 55 -4 115 -7 207 -67 320 -215 407 -25 15 -41 28 -36 28 6 0 33 -14 62 -30z
m-450 -143 c18 -36 20 -121 3 -203 -32 -160 -71 -314 -80 -314 -12 0 -31 69
-25 92 4 13 8 33 10 44 2 10 4 19 5 19 0 0 3 26 5 58 5 67 15 90 25 61 5 -12
9 1 11 38 2 31 1 54 -2 52 -4 -2 -9 5 -12 16 -3 14 0 20 10 20 12 0 13 3 4 14
-9 11 -9 25 -1 56 6 23 10 49 9 58 -4 43 12 38 38 -11z m153 -206 c0 -5 18
-41 41 -82 37 -67 138 -295 153 -344 5 -17 -11 -35 -86 -97 -51 -42 -97 -77
-103 -78 -5 -2 -16 -11 -23 -21 -23 -32 -39 -21 -71 48 -49 104 -49 104 8 164
56 59 61 82 6 29 -19 -18 -38 -31 -42 -27 -3 4 -1 7 5 7 7 0 12 12 12 26 0 18
4 25 14 21 10 -4 13 3 11 25 -3 44 5 68 21 61 11 -4 13 2 8 26 -4 20 0 48 11
77 11 28 17 73 17 115 0 39 4 67 9 63 5 -3 9 -9 9 -13z m-35 -78 c-8 -66 -14
-83 -27 -83 -5 0 -6 5 -3 10 4 6 8 23 11 38 12 76 15 92 21 92 3 0 2 -25 -2
-57z m-5130 -81 c-13 -13 -35 -9 -36 6 -1 18 -2 26 -14 77 -5 23 0 18 25 -23
17 -30 29 -57 25 -60z m25 -22 c0 -5 -8 -10 -17 -10 -15 0 -16 2 -3 10 19 12
20 12 20 0z m5077 -32 c-3 -8 -6 -5 -6 6 -1 11 2 17 5 13 3 -3 4 -12 1 -19z
m-5153 -23 c-13 -9 -20 -10 -23 -3 -2 6 5 17 15 25 13 9 20 10 22 3 2 -6 -4
-17 -14 -25z m-42 -27 c-7 -7 -12 -8 -12 -2 0 14 12 26 19 19 2 -3 -1 -11 -7
-17z m4755 -10 c-3 -8 -6 -5 -6 6 -1 11 2 17 5 13 3 -3 4 -12 1 -19z m-4773
-5 c5 -12 -12 -35 -60 -82 -68 -67 -140 -166 -150 -208 -4 -13 -9 -23 -13 -23
-10 0 -5 -102 7 -130 14 -35 92 -97 144 -115 24 -8 52 -19 63 -25 11 -5 31
-11 45 -14 14 -3 -5 -3 -42 0 -259 18 -378 163 -285 345 36 72 134 176 217
232 62 42 66 43 74 20z m136 -88 c23 -55 57 -129 76 -163 19 -35 34 -69 34
-75 0 -7 -7 1 -15 16 -8 15 -23 40 -35 54 -11 14 -17 30 -13 37 3 6 2 7 -2 3
-11 -10 -76 103 -68 117 4 6 3 8 -2 4 -4 -4 -18 12 -31 37 -28 52 -29 55 -9
55 8 0 15 5 15 12 0 19 6 8 50 -97z m5549 35 c-21 -76 -85 -232 -111 -269 -15
-22 -16 -20 -46 66 l-29 89 101 92 c55 50 102 92 103 92 1 0 -7 -31 -18 -70z
m-5607 -31 c2 -8 6 -16 9 -19 12 -11 79 -128 79 -139 0 -6 4 -11 8 -11 7 0 20
-21 40 -64 3 -5 -1 -5 -7 -1 -32 19 -155 237 -143 250 4 5 1 5 -5 1 -9 -5 -11
-2 -6 10 4 12 3 15 -5 10 -13 -8 -17 6 -5 18 7 7 29 -28 35 -55z m-12 -36 c23
-42 77 -130 120 -195 72 -107 78 -119 63 -133 -14 -15 -13 -16 8 -12 13 2 19
2 13 0 -7 -2 -14 -13 -17 -24 -3 -10 -10 -19 -17 -19 -6 0 -8 6 -4 13 4 6 -9
-6 -28 -28 -32 -36 -38 -39 -59 -28 -44 21 -58 23 -52 7 3 -7 11 -14 18 -14 8
0 16 -4 20 -9 9 -16 -115 -6 -178 15 -124 39 -176 122 -150 239 8 33 20 63 28
68 8 4 15 14 15 22 0 15 155 175 170 175 4 0 27 -35 50 -77z m4961 8 c-6 -11
-11 -30 -11 -43 0 -13 -5 -29 -10 -34 -6 -6 -18 -35 -28 -65 -10 -30 -23 -53
-29 -52 -6 1 -18 -15 -27 -37 -9 -22 -20 -40 -26 -40 -13 0 -13 25 -1 48 33
60 58 121 53 128 -4 4 -2 4 5 1 13 -8 53 38 53 59 0 17 -16 18 -26 2 -4 -7 -3
-8 4 -4 18 11 14 -3 -8 -26 l-19 -21 4 21 c2 11 8 29 14 40 6 11 7 23 3 27 -4
4 3 4 16 1 25 -8 27 -4 12 24 -8 16 -8 18 5 14 9 -4 16 0 16 7 1 8 4 4 6 -8 2
-12 -1 -31 -6 -42z m488 -151 c17 -43 31 -88 31 -98 0 -24 -125 -214 -134
-204 -4 4 -6 0 -4 -8 2 -8 -3 -14 -10 -12 -8 1 -11 -1 -8 -6 7 -11 -22 -52
-36 -52 -5 0 -7 7 -4 16 3 8 2 12 -3 9 -5 -3 -13 5 -16 17 -4 13 -25 61 -47
107 -34 73 -46 129 -26 125 3 -1 26 16 50 37 48 43 172 148 175 149 1 0 15
-36 32 -80z m-393 22 c5 1 26 -28 48 -65 29 -51 36 -71 27 -76 -7 -5 -11 -11
-9 -14 3 -6 -129 -109 -164 -128 -13 -7 -21 -4 -34 16 -15 23 -15 27 0 50 9
13 17 36 18 49 1 14 7 22 12 19 5 -4 7 1 3 11 -5 11 -3 15 5 10 8 -5 9 -2 5 9
-4 10 -2 16 4 14 6 -1 12 13 14 31 3 35 22 65 36 56 5 -3 9 5 9 18 0 16 3 19
9 10 4 -8 12 -12 17 -10z m-4852 -157 c17 -29 17 -28 -13 5 -17 19 -31 38 -31
43 0 12 23 -13 44 -48z m4596 -49 l-21 -21 18 39 c13 27 19 34 21 21 2 -10 -6
-27 -18 -39z m405 -48 c25 -51 48 -108 51 -126 3 -18 10 -35 15 -38 15 -9 -45
-79 -195 -229 -197 -197 -471 -411 -628 -491 -45 -23 -47 -23 -45 -4 1 11 9
23 19 26 10 3 18 9 18 13 0 17 49 61 142 130 53 39 102 71 109 71 7 0 9 3 6 6
-4 4 14 22 38 41 25 19 45 36 45 39 0 3 -15 -6 -32 -19 -18 -14 -64 -48 -103
-76 -38 -28 -76 -56 -83 -62 -7 -5 -17 -7 -23 -4 -5 4 -18 1 -27 -5 -9 -7 3 6
28 28 25 23 50 41 55 41 6 1 -1 -8 -15 -19 -14 -11 -20 -20 -14 -20 14 0 46
35 38 42 -3 3 11 22 31 41 21 20 35 41 33 48 -4 12 -68 -48 -68 -64 0 -5 -5
-5 -12 -1 -7 4 -8 3 -4 -4 4 -7 2 -12 -4 -12 -7 0 -51 -35 -100 -77 -96 -86
-150 -129 -193 -156 -16 -10 -41 -29 -55 -42 -37 -35 -132 -99 -137 -93 -3 2
23 24 57 49 110 79 420 399 449 464 10 22 41 69 68 105 28 36 51 69 51 73 0
10 43 71 53 75 4 2 5 8 2 13 -3 4 3 14 14 20 10 7 17 18 14 24 -5 15 104 114
123 111 7 -1 17 -5 20 -9 14 -14 25 -7 19 12 -6 20 51 85 67 75 4 -3 8 0 8 6
0 6 7 13 16 17 9 3 33 21 53 39 20 19 39 34 44 34 4 0 28 -42 52 -92z m331
-26 l26 -86 -33 -28 c-99 -83 -181 -140 -188 -132 -4 5 -13 23 -20 41 -12 30
-11 34 39 100 l52 68 -56 -60 -57 -60 48 67 c27 37 53 65 60 63 6 -2 17 4 25
13 12 15 11 16 -4 3 -28 -21 -21 0 16 50 49 67 62 61 92 -39z m-1040 -35 c4
-28 2 -47 -4 -47 -10 0 -22 46 -22 88 0 43 20 11 26 -41z m285 45 c-5 -9 -19
-26 -32 -37 -19 -16 -18 -13 5 18 30 39 43 49 27 19z m139 -27 c0 -20 -53 -60
-59 -44 -2 7 1 15 8 17 6 2 11 12 11 22 0 18 18 31 33 23 4 -2 7 -10 7 -18z
m-4707 1 c3 -8 0 -17 -7 -19 -10 -4 -12 1 -9 14 6 23 9 24 16 5z m-33 -16 c0
-5 -8 -10 -17 -10 -15 0 -16 2 -3 10 19 12 20 12 20 0z m233 -35 c-7 -19 -19
-19 -26 -1 -3 8 -1 17 6 19 18 6 27 -2 20 -18z m4307 -29 c0 -3 -4 -8 -10 -11
-5 -3 -10 -1 -10 4 0 6 5 11 10 11 6 0 10 -2 10 -4z m-4521 -42 c-14 -18 -41
0 -32 22 4 10 10 11 25 3 15 -8 17 -13 7 -25z m82 3 c-10 -9 -11 -8 -5 6 3 10
9 15 12 12 3 -3 0 -11 -7 -18z m-56 -16 c-3 -6 -11 -8 -17 -5 -6 4 -5 9 3 15
16 10 23 4 14 -10z m275 -54 c0 -12 -24 13 -38 40 -20 37 -13 38 13 3 14 -19
25 -38 25 -43z m-75 13 c3 -5 1 -10 -4 -10 -6 0 -11 5 -11 10 0 6 2 10 4 10 3
0 8 -4 11 -10z m111 -95 c-2 -5 14 -28 36 -51 21 -22 41 -52 44 -67 5 -28 -9
-37 -23 -14 -4 7 -25 26 -45 41 -21 16 -35 32 -32 37 3 5 -3 10 -13 10 -17 1
-17 2 0 6 18 5 17 6 -3 28 -14 15 -18 25 -11 30 16 10 13 28 -4 22 -8 -4 -17
-1 -21 5 -4 7 -3 8 4 4 7 -4 12 -2 12 3 0 6 -3 11 -8 11 -4 0 -13 10 -21 23
-7 12 10 0 38 -28 28 -27 49 -54 47 -60z m318 74 c4 6 4 16 1 21 -3 6 -2 10 4
10 15 0 42 -44 43 -72 1 -12 6 -29 11 -36 6 -7 7 -16 2 -20 -8 -8 -64 55 -89
102 l-18 31 20 -24 c13 -16 21 -20 26 -12z m4416 18 c0 -2 -10 -12 -22 -23
l-23 -19 19 23 c18 21 26 27 26 19z m45 -39 l15 -37 -113 -84 c-98 -73 -209
-153 -314 -226 -18 -12 -33 -21 -33 -18 0 2 51 48 114 103 63 54 115 103 115
107 1 5 -3 5 -9 2 -22 -13 -7 3 52 60 58 55 59 56 13 8 -27 -29 -44 -53 -38
-53 6 0 48 40 94 90 46 49 84 88 86 87 1 -2 9 -19 18 -39z m-4905 -38 c12 -8
11 -10 -7 -10 -12 0 -25 5 -28 10 -8 13 15 13 35 0z m678 -152 c23 -39 40 -73
38 -75 -7 -7 -76 73 -95 111 -17 33 -17 36 -2 36 9 0 33 -29 59 -72z m3452
-282 c0 -3 -15 -14 -32 -26 l-33 -22 30 26 c31 27 35 29 35 22z m-276 -27
c-10 -11 -28 -25 -39 -31 -11 -5 -4 4 15 21 41 36 51 40 24 10z m-114 -83 c0
-2 -12 -11 -27 -20 l-28 -17 24 20 c23 21 31 25 31 17z m-120 -80 c-22 -20
-155 -92 -147 -79 4 6 35 25 69 43 35 18 67 36 73 41 5 5 11 9 14 9 3 0 -1 -6
-9 -14z m-180 -96 c-24 -19 -40 -25 -40 -15 0 5 51 34 60 34 3 0 -6 -8 -20
-19z m-60 -24 c0 -2 -7 -7 -16 -10 -8 -3 -12 -2 -9 4 6 10 25 14 25 6z m415
-66 c-3 -5 -13 -10 -21 -10 -8 0 -12 5 -9 10 3 6 13 10 21 10 8 0 12 -4 9 -10z
m-1948 -16 c-3 -3 -12 -4 -19 -1 -8 3 -5 6 6 6 11 1 17 -2 13 -5z m139 -94
c39 -15 24 -21 -22 -9 -45 13 -75 35 -32 25 15 -3 39 -11 54 -16z m212 -37
c-10 -2 -26 -2 -35 0 -10 3 -2 5 17 5 19 0 27 -2 18 -5z m-1490 -39 c-2 -11
-13 -20 -26 -22 -21 -3 -22 -1 -12 17 6 12 15 19 20 16 6 -4 7 2 3 12 -5 14
-3 15 6 7 7 -7 11 -20 9 -30z m42 -15 c0 -10 -4 -19 -10 -19 -5 0 -10 12 -10
26 0 14 4 23 10 19 6 -3 10 -15 10 -26z m140 12 c3 -1 6 -10 7 -21 1 -17 -4
-20 -34 -20 -28 0 -34 3 -29 16 3 9 6 19 6 23 0 6 17 7 50 2z m80 -29 l35 -10
-32 -1 c-17 -1 -38 -4 -47 -7 -12 -5 -16 0 -16 21 0 21 3 25 13 17 6 -6 28
-15 47 -20z m-1296 -190 c-102 -103 -375 -279 -501 -321 -74 -25 -89 -26 -96
-7 -4 10 -1 13 9 9 10 -3 12 0 8 10 -7 20 25 38 99 54 31 6 70 22 85 34 19 16
21 20 7 15 -66 -26 -107 -38 -111 -33 -7 7 89 52 105 49 8 -2 10 1 6 8 -5 9
-1 10 15 5 17 -5 21 -4 15 5 -5 9 -4 11 4 6 9 -6 9 -11 0 -22 -15 -18 -5 -18
32 1 17 9 27 21 23 27 -4 7 -3 8 4 4 13 -8 57 12 48 21 -3 3 -14 0 -23 -8 -16
-13 -17 -12 -4 4 8 10 21 15 31 12 10 -3 62 25 136 74 117 77 144 91 108 53z
m2906 9 c0 -13 -87 -22 -134 -13 -40 7 -39 7 29 13 39 3 78 6 88 7 9 1 17 -2
17 -7z m-553 -7 c-3 -3 -12 -4 -19 -1 -8 3 -5 6 6 6 11 1 17 -2 13 -5z m190
-10 c-3 -3 -12 -4 -19 -1 -8 3 -5 6 6 6 11 1 17 -2 13 -5z m176 -1 c-7 -2 -21
-2 -30 0 -10 3 -4 5 12 5 17 0 24 -2 18 -5z m-3 -109 c0 -2 -9 0 -20 6 -11 6
-20 13 -20 16 0 2 9 0 20 -6 11 -6 20 -13 20 -16z m-2875 -54 c-3 -5 -20 -19
-38 -30 -32 -22 -32 -22 3 9 37 32 45 37 35 21z m3005 -25 c13 -14 21 -25 18
-25 -2 0 -15 11 -28 25 -13 14 -21 25 -18 25 2 0 15 -11 28 -25z m50 1 c0 -3
-4 -8 -10 -11 -5 -3 -10 -1 -10 4 0 6 5 11 10 11 6 0 10 -2 10 -4z m309 -66
c0 -10 -6 -8 -19 9 -11 13 -20 31 -20 40 0 12 5 10 20 -9 11 -14 20 -32 19
-40z m-292 29 c2 -17 -1 -18 -12 -9 -8 7 -12 16 -9 21 9 16 20 10 21 -12z
m-3544 4 c-7 -2 -10 -10 -7 -18 5 -11 11 -11 40 1 47 20 43 9 -6 -16 -22 -11
-40 -17 -40 -13 0 5 -24 8 -53 8 -37 1 -54 -3 -54 -12 0 -9 11 -11 37 -7 46 8
62 -11 25 -28 -21 -9 -26 -18 -23 -42 l3 -31 -70 -3 c-91 -3 -139 18 -143 65
-3 35 19 55 68 60 21 2 22 1 6 -6 -11 -4 -21 -16 -22 -27 -3 -18 -2 -18 11 -1
13 19 86 42 82 27 -1 -4 2 -7 8 -6 5 0 9 7 7 14 -2 6 -2 12 0 12 2 0 20 6 41
14 34 11 120 21 90 9z m4077 -9 c0 -8 -4 -12 -10 -9 -5 3 -10 10 -10 16 0 5 5
9 10 9 6 0 10 -7 10 -16z m-4403 -76 c-3 -7 -5 -2 -5 12 0 14 2 19 5 13 2 -7
2 -19 0 -25z m371 -55 c-10 -2 -28 -2 -40 0 -13 2 -5 4 17 4 22 1 32 -1 23 -4z
m1925 -77 c-15 -8 -33 8 -32 29 0 6 3 4 6 -2 7 -20 23 -15 16 5 -5 14 -3 13
10 -3 14 -18 14 -21 0 -29z m87 -13 l25 -13 -32 0 c-22 0 -36 6 -43 20 -11 21
-2 20 50 -7z m8 -30 c-10 -2 -26 -2 -35 0 -10 3 -2 5 17 5 19 0 27 -2 18 -5z
m-82 -40 c-4 -4 -11 -1 -16 7 -16 25 -11 35 7 17 9 -9 13 -20 9 -24z m90 12
c-8 -8 -22 -15 -30 -15 -9 0 -16 7 -16 15 0 10 10 15 31 15 27 0 29 -2 15 -15z
m39 -79 c-10 -14 -21 -27 -26 -27 -31 -5 -43 -3 -47 9 -2 7 9 15 27 18 17 4
36 13 42 20 19 23 22 8 4 -20z m-115 4 c0 -5 6 -10 14 -10 8 0 16 -7 20 -15 7
-20 -13 -19 -36 2 -20 18 -24 33 -8 33 6 0 10 -4 10 -10z"/>
<path d="M8798 8453 c7 -3 16 -2 19 1 4 3 -2 6 -13 5 -11 0 -14 -3 -6 -6z"/>
<path d="M8798 8423 c7 -3 16 -2 19 1 4 3 -2 6 -13 5 -11 0 -14 -3 -6 -6z"/>
<path d="M3231 7994 c0 -11 3 -14 6 -6 3 7 2 16 -1 19 -3 4 -6 -2 -5 -13z"/>
<path d="M3790 7976 c0 -2 11 -6 25 -8 13 -3 22 -1 19 3 -5 9 -44 13 -44 5z"/>
<path d="M3911 7816 c2 -2 22 -11 44 -20 l40 -16 -25 20 c-14 11 -34 20 -44
20 -11 0 -17 -2 -15 -4z"/>
<path d="M3788 7723 c7 -3 16 -2 19 1 4 3 -2 6 -13 5 -11 0 -14 -3 -6 -6z"/>
<path d="M3856 7702 c-3 -5 1 -9 9 -9 8 0 12 4 9 9 -3 4 -7 8 -9 8 -2 0 -6 -4
-9 -8z"/>
<path d="M3578 7533 c7 -3 16 -2 19 1 4 3 -2 6 -13 5 -11 0 -14 -3 -6 -6z"/>
<path d="M3805 7365 c-39 -17 -32 -17 30 0 30 8 40 14 25 14 -14 0 -38 -6 -55
-14z"/>
<path d="M3750 7340 c-9 -6 -10 -10 -3 -10 6 0 15 5 18 10 8 12 4 12 -15 0z"/>
<path d="M8220 5584 c0 -8 5 -12 10 -9 6 3 10 10 10 16 0 5 -4 9 -10 9 -5 0
-10 -7 -10 -16z"/>
<path d="M8440 5495 c-8 -9 -8 -15 -2 -15 12 0 26 19 19 26 -2 2 -10 -2 -17
-11z"/>
<path d="M8123 5265 c0 -7 6 -11 14 -8 7 3 13 6 13 8 0 2 -6 5 -13 8 -8 3 -14
-1 -14 -8z"/>
<path d="M8336 4744 c-5 -14 -4 -15 9 -4 17 14 19 20 6 20 -5 0 -12 -7 -15
-16z"/>
<path d="M8279 4693 l-24 -28 28 24 c15 14 27 26 27 28 0 8 -8 1 -31 -24z"/>
<path d="M8149 4583 c-13 -16 -12 -17 4 -4 16 13 21 21 13 21 -2 0 -10 -8 -17
-17z"/>
<path d="M8074 4524 l-39 -35 43 32 c38 30 48 39 39 39 -2 0 -21 -16 -43 -36z"/>
<path d="M7915 4440 c-3 -6 1 -7 9 -4 18 7 21 14 7 14 -6 0 -13 -4 -16 -10z"/>
<path d="M8721 5077 c-13 -21 -12 -21 5 -5 10 10 16 20 13 22 -3 3 -11 -5 -18
-17z"/>
<path d="M3757 4749 c7 -7 15 -10 18 -7 3 3 -2 9 -12 12 -14 6 -15 5 -6 -5z"/>
<path d="M2568 3223 c7 -3 16 -2 19 1 4 3 -2 6 -13 5 -11 0 -14 -3 -6 -6z"/>
<path d="M5321 9228 c-5 -13 -8 -25 -7 -28 0 -3 -7 -16 -17 -30 -9 -13 -17
-33 -17 -44 0 -19 0 -19 19 0 10 10 17 22 15 25 -2 4 5 9 15 12 28 7 37 87 10
87 -5 0 -13 -10 -18 -22z"/>
<path d="M5510 9200 c0 -5 4 -10 9 -10 6 0 13 5 16 10 3 6 -1 10 -9 10 -9 0
-16 -4 -16 -10z"/>
<path d="M5433 9184 c-3 -8 -12 -13 -20 -10 -23 9 -25 -20 -4 -60 12 -21 21
-45 21 -53 0 -32 21 7 22 41 1 24 5 35 14 31 6 -2 15 1 19 6 3 6 11 9 16 6 14
-9 11 -25 -5 -25 -8 0 -17 -12 -21 -27 -10 -40 -82 -146 -90 -132 -4 6 -8 35
-8 65 -1 34 -6 55 -14 58 -15 6 -16 -6 -3 -94 8 -59 7 -67 -12 -87 -12 -13
-28 -23 -35 -23 -8 0 -11 -5 -8 -11 4 -6 19 -7 36 -4 29 7 29 6 30 -42 1 -26
1 -53 0 -59 -1 -6 5 -11 11 -11 9 0 12 15 10 49 -4 51 -2 54 28 38 16 -9 18
-15 10 -36 -6 -14 -10 -35 -10 -47 1 -20 2 -20 11 -4 14 24 28 21 22 -5 -5
-23 -5 -23 10 -3 9 11 17 28 17 38 0 9 2 17 5 17 10 0 101 -31 117 -40 12 -7
18 -5 23 8 3 9 3 13 -1 10 -4 -4 -16 -3 -26 3 -14 8 -17 14 -10 21 7 7 30 -1
74 -26 82 -47 98 -60 98 -80 0 -9 7 -16 16 -16 9 0 12 -5 8 -12 -4 -6 -3 -8 2
-5 13 8 39 -9 39 -25 0 -7 14 -17 31 -23 17 -5 52 -27 78 -48 l46 -39 -23 -18
c-13 -10 -37 -22 -53 -26 -44 -10 -47 -15 -24 -31 27 -19 59 -11 100 24 28 23
34 25 44 12 21 -29 61 -48 98 -46 20 0 35 4 33 8 -3 3 -29 23 -60 44 -30 21
-55 44 -55 51 0 8 17 22 38 33 46 24 66 46 83 94 7 20 17 37 21 37 4 0 8 8 8
18 0 32 10 31 73 -4 34 -19 70 -37 80 -40 20 -7 21 -18 5 -47 -7 -12 -13 -55
-13 -96 0 -49 -5 -76 -13 -79 -21 -7 -13 -25 8 -19 11 3 20 2 20 -3 0 -4 8
-10 18 -14 9 -3 25 -11 35 -18 15 -11 20 -10 29 6 8 14 12 15 18 6 5 -7 16
-14 27 -15 10 -1 30 -8 46 -15 24 -12 30 -11 50 8 19 18 26 19 36 9 10 -10 11
-7 6 15 -5 21 -2 29 15 38 21 11 51 3 112 -30 33 -18 32 -10 -2 15 l-34 25 30
1 c40 2 56 0 79 -10 68 -29 102 -45 118 -53 9 -5 17 -7 17 -4 0 3 -22 17 -50
32 -27 15 -50 32 -50 38 0 6 5 5 12 -2 27 -27 37 -2 11 26 -7 7 -13 22 -13 32
0 10 -5 22 -11 26 -8 4 -7 9 2 15 11 7 11 9 1 9 -9 0 -11 7 -7 20 5 15 0 23
-19 32 -26 11 -32 34 -27 94 1 14 -11 26 -40 42 -22 12 -46 22 -52 22 -7 -1 5
-10 26 -21 47 -25 44 -31 -8 -19 -21 5 -43 7 -47 4 -4 -3 -8 2 -8 11 0 9 -5
13 -10 10 -6 -4 -8 -11 -5 -16 4 -5 3 -18 0 -29 -6 -18 -14 -20 -85 -17 -73 2
-80 4 -91 27 -7 14 -13 32 -14 40 -1 8 -17 42 -36 75 -32 56 -37 60 -74 63
-22 2 -44 11 -48 19 -21 36 -71 84 -84 79 -7 -3 -22 3 -33 14 -21 21 -40 26
-40 11 0 -5 9 -13 20 -16 28 -9 25 -24 -5 -21 -26 3 -25 -4 7 -40 18 -21 18
-22 1 -39 -11 -11 -18 -14 -21 -6 -2 6 -13 11 -25 11 -12 0 -30 7 -40 14 -12
9 -27 11 -45 6 -20 -5 -32 -2 -48 12 -19 17 -23 18 -37 4 -9 -9 -21 -16 -27
-16 -8 0 -10 -10 -7 -26 4 -25 3 -26 -32 -21 -20 3 -48 9 -63 12 -22 6 -28 4
-28 -9 0 -9 3 -16 8 -16 4 0 7 -13 7 -29 0 -16 -3 -27 -7 -25 -4 2 -13 -5 -21
-17 -14 -19 -13 -23 1 -38 10 -10 20 -16 24 -14 5 2 16 0 25 -6 14 -7 4 -10
-37 -9 -30 0 -49 3 -43 5 17 6 -1 23 -50 45 -20 10 -43 29 -49 43 -6 14 -18
25 -27 26 -12 0 -11 2 3 8 18 7 19 8 1 14 -14 6 -16 15 -12 42 4 26 2 33 -8
29 -8 -3 -28 3 -45 13 -28 16 -31 22 -25 53 18 102 18 110 1 110 -9 0 -20 10
-25 22 -5 14 -10 17 -15 10 -5 -8 -13 -5 -26 8 -24 24 -39 25 -47 4z m93 -124
c-8 -69 -65 -150 -107 -150 -16 0 -29 3 -29 7 0 3 23 39 50 80 28 40 50 77 50
81 0 11 22 32 33 32 4 0 6 -22 3 -50z m774 -152 c0 -15 -18 0 -41 35 l-22 32
31 -29 c18 -17 32 -34 32 -38z m-850 -30 c0 -4 -13 -8 -30 -8 -16 0 -30 5 -30
10 0 6 14 9 30 8 17 -1 30 -6 30 -10z m881 -33 c7 -13 3 -12 -10 5 -11 14 -21
30 -21 35 0 11 14 -7 31 -40z m-151 -30 c0 -5 -9 5 -20 23 -26 42 -26 56 0 17
11 -16 20 -34 20 -40z m-130 51 c0 -3 -4 -8 -10 -11 -5 -3 -10 -1 -10 4 0 6 5
11 10 11 6 0 10 -2 10 -4z m253 -28 c18 -13 37 -23 42 -23 6 0 10 -5 10 -12 0
-7 9 -19 20 -28 11 -9 14 -13 6 -9 -10 5 -12 3 -5 -7 5 -8 9 -26 9 -40 0 -24
-2 -26 -25 -17 -13 5 -54 25 -91 44 -73 38 -76 47 -36 92 25 27 31 27 70 0z
m-610 -40 c18 -10 26 -18 18 -18 -14 0 -111 58 -111 66 0 3 14 -3 31 -13 17
-10 45 -26 62 -35z m399 28 c9 8 68 -24 68 -37 0 -19 -34 -69 -47 -69 -8 0
-13 12 -13 29 0 17 -5 33 -10 36 -6 3 -17 21 -26 38 -17 32 -16 32 3 14 11 -9
22 -14 25 -11z m-128 -43 c2 -10 7 -44 11 -77 4 -32 13 -76 20 -97 16 -43 8
-48 -31 -22 -29 18 -64 82 -74 133 -4 19 -11 42 -14 52 -8 17 7 25 56 27 18 1
28 -5 32 -16z m481 -13 c-3 -5 -1 -10 4 -12 4 -1 11 -14 15 -28 l7 -25 -21 25
c-11 14 -25 32 -30 42 -8 13 -6 15 10 11 11 -3 18 -9 15 -13z m-397 -30 c6 0
19 -15 29 -33 20 -33 20 -33 -2 -65 l-22 -32 -11 25 c-8 17 -8 33 -2 51 12 32
12 34 0 34 -5 0 -10 -12 -10 -26 0 -21 -3 -24 -13 -15 -8 6 -16 9 -18 6 -3 -2
-6 10 -7 28 -1 18 -5 41 -8 51 -6 18 -4 18 24 -3 17 -11 35 -21 40 -21z m658
-8 c-3 -5 9 -7 27 -5 26 3 28 1 12 -6 -28 -13 -63 -13 -71 1 -4 7 -3 8 4 4 7
-4 12 -2 12 3 0 6 5 11 11 11 5 0 8 -4 5 -8z m-555 -29 c-12 -20 -14 -14 -5
12 4 9 9 14 11 11 3 -2 0 -13 -6 -23z m260 10 c13 -16 12 -17 -3 -4 -10 7 -18
15 -18 17 0 8 8 3 21 -13z m-535 -25 c0 -10 -1 -18 -3 -18 -1 0 -7 8 -12 18
-7 13 -6 19 2 19 7 0 13 -9 13 -19z m258 -35 c-6 -28 -29 -53 -47 -53 -11 0
38 78 51 80 1 0 0 -12 -4 -27z m-269 -31 c-3 -3 -11 0 -18 7 -9 10 -8 11 6 5
10 -3 15 -9 12 -12z m705 -176 c0 -3 -4 -8 -10 -11 -5 -3 -10 -1 -10 4 0 6 5
11 10 11 6 0 10 -2 10 -4z"/>
<path d="M5418 8923 c7 -3 16 -2 19 1 4 3 -2 6 -13 5 -11 0 -14 -3 -6 -6z"/>
<path d="M4870 8942 c6 -13 14 -21 18 -18 3 4 -2 14 -12 24 -18 16 -18 16 -6
-6z"/>
<path d="M7270 8949 c0 -5 5 -7 10 -4 6 3 10 8 10 11 0 2 -4 4 -10 4 -5 0 -10
-5 -10 -11z"/>
<path d="M5381 8724 c0 -11 3 -14 6 -6 3 7 2 16 -1 19 -3 4 -6 -2 -5 -13z"/>
<path d="M7260 8729 c0 -5 5 -7 10 -4 6 3 10 8 10 11 0 2 -4 4 -10 4 -5 0 -10
-5 -10 -11z"/>
<path d="M8718 8723 c7 -3 16 -2 19 1 4 3 -2 6 -13 5 -11 0 -14 -3 -6 -6z"/>
<path d="M8778 8723 c6 -2 18 -2 25 0 6 3 1 5 -13 5 -14 0 -19 -2 -12 -5z"/>
<path d="M8850 8716 c0 -2 7 -7 16 -10 8 -3 12 -2 9 4 -6 10 -25 14 -25 6z"/>
<path d="M5380 8675 c-6 -15 -8 -30 -6 -33 3 -3 10 8 16 23 6 15 8 30 6 33 -3
3 -10 -8 -16 -23z"/>
<path d="M7789 8682 c-20 -10 -68 -24 -107 -31 -39 -7 -76 -14 -84 -16 -62
-13 -79 -19 -83 -25 -6 -9 3 -8 60 8 31 8 114 21 177 26 3 1 10 4 14 9 4 4 19
8 33 8 21 1 22 2 6 6 -17 5 -15 7 10 18 17 8 25 14 20 14 -6 1 -27 -7 -46 -17z"/>
<path d="M7251 8673 c-1 -6 -4 -18 -7 -27 -5 -13 -2 -13 19 -3 14 6 23 15 20
19 -2 5 -8 6 -13 3 -4 -3 -11 1 -13 7 -4 9 -6 9 -6 1z"/>
<path d="M7860 8671 c-8 -5 -37 -31 -65 -57 -44 -41 -45 -43 -10 -17 51 38 69
44 85 30 10 -10 10 -8 2 9 -8 15 -8 24 0 32 14 14 9 15 -12 3z"/>
<path d="M8134 8658 l-19 -23 23 19 c21 18 27 26 19 26 -2 0 -12 -10 -23 -22z"/>
<path d="M5376 8613 c-6 -14 -5 -15 5 -6 7 7 10 15 7 18 -3 3 -9 -2 -12 -12z"/>
<path d="M9015 8619 c-4 -6 -4 -13 -1 -16 3 -4 6 -1 6 7 0 10 4 10 18 -1 15
-13 16 -12 3 4 -16 20 -18 20 -26 6z"/>
<path d="M7438 8565 c-27 -20 -48 -38 -48 -41 0 -4 55 32 109 73 2 2 0 3 -5 3
-5 0 -30 -16 -56 -35z"/>
<path d="M8298 8572 c-16 -9 -28 -20 -28 -25 0 -4 14 2 30 15 26 19 36 29 28
28 -2 0 -15 -8 -30 -18z"/>
<path d="M7310 8571 c0 -5 5 -13 10 -16 6 -3 10 -2 10 4 0 5 -4 13 -10 16 -5
3 -10 2 -10 -4z"/>
<path d="M5865 8530 c3 -5 12 -7 20 -3 21 7 19 13 -6 13 -11 0 -18 -4 -14 -10z"/>
<path d="M7290 8525 c0 -8 4 -15 10 -15 5 0 7 7 4 15 -4 8 -8 15 -10 15 -2 0
-4 -7 -4 -15z"/>
<path d="M7326 8527 c3 -10 9 -15 12 -12 3 3 0 11 -7 18 -10 9 -11 8 -5 -6z"/>
<path d="M7249 8478 c-3 -34 4 -84 11 -92 6 -5 15 -4 25 4 21 18 19 29 -5 23
-16 -4 -20 0 -20 23 0 27 1 27 15 8 14 -17 14 -15 0 14 -16 34 -24 40 -26 20z"/>
<path d="M7925 8448 l-40 -43 43 40 c39 36 47 45 39 45 -2 0 -21 -19 -42 -42z"/>
<path d="M4178 8468 c5 -5 16 -8 23 -6 8 3 3 7 -10 11 -17 4 -21 3 -13 -5z"/>
<path d="M7619 8454 c-13 -15 -46 -37 -74 -50 -58 -26 -146 -92 -153 -114 -3
-8 17 4 44 26 27 23 65 49 84 59 30 15 25 7 -40 -61 -41 -43 -80 -77 -87 -76
-6 1 -14 -2 -18 -8 -3 -5 -13 -10 -22 -10 -14 0 -13 4 5 23 12 13 22 27 22 31
0 5 -9 -2 -19 -15 -11 -13 -22 -21 -25 -18 -3 3 7 20 24 39 16 18 27 37 24 42
-7 11 -24 0 -24 -16 0 -7 -11 -25 -25 -40 -14 -15 -25 -29 -25 -32 0 -3 -9
-17 -20 -31 -11 -14 -20 -20 -20 -13 0 7 -9 1 -20 -13 -14 -18 -19 -34 -14
-51 7 -28 15 -31 45 -16 13 8 19 7 19 0 0 -6 5 -8 11 -4 8 4 7 9 -2 15 -11 6
-1 21 40 61 53 51 54 44 2 -17 -15 -17 30 26 98 95 68 69 123 128 122 133 -1
7 20 11 50 8 8 -1 21 10 27 23 9 21 9 24 -3 19 -18 -6 -20 8 -3 25 7 7 10 12
7 12 -3 0 -16 -12 -30 -26z m-288 -267 c-10 -9 -11 -8 -5 6 3 10 9 15 12 12 3
-3 0 -11 -7 -18z"/>
<path d="M7710 8470 c-9 -6 -10 -10 -3 -10 6 0 15 5 18 10 8 12 4 12 -15 0z"/>
<path d="M7755 8472 c6 -4 18 -17 28 -29 19 -21 18 -22 -4 -16 -15 4 -20 3
-15 -6 4 -6 12 -8 18 -5 6 4 8 3 5 -3 -3 -5 -20 -8 -38 -5 -23 3 -30 1 -24 -7
4 -7 13 -10 21 -7 7 3 16 1 19 -4 4 -6 2 -10 -3 -10 -5 0 -12 -9 -15 -21 -5
-19 -4 -19 11 -6 9 9 26 33 37 54 11 21 25 42 32 46 15 9 17 27 4 27 -5 0 -16
-7 -24 -15 -13 -13 -16 -13 -27 0 -7 8 -18 15 -24 15 -7 0 -7 -3 -1 -8z"/>
<path d="M7684 8435 c-18 -15 -17 -16 16 -9 44 8 63 24 29 24 -14 0 -34 -7
-45 -15z"/>
<path d="M4277 8392 c10 -18 22 -32 26 -32 11 0 -8 34 -28 50 -13 11 -13 8 2
-18z"/>
<path d="M7320 8409 c0 -5 5 -7 10 -4 6 3 10 8 10 11 0 2 -4 4 -10 4 -5 0 -10
-5 -10 -11z"/>
<path d="M6964 8401 c7 -10 -13 -71 -23 -71 -4 0 -5 -16 -3 -35 4 -37 17 -42
57 -25 18 8 17 9 -8 9 -26 1 -27 2 -21 44 4 23 10 46 15 52 13 13 11 22 -7 29
-8 3 -13 2 -10 -3z"/>
<path d="M7701 8394 c0 -11 3 -14 6 -6 3 7 2 16 -1 19 -3 4 -6 -2 -5 -13z"/>
<path d="M7828 8338 c-141 -164 -318 -397 -318 -419 0 -11 45 33 52 51 12 31
69 101 78 95 5 -3 7 0 5 8 -6 15 59 105 173 240 40 48 71 87 69 87 -3 0 -30
-28 -59 -62z"/>
<path d="M3142 8350 c0 -19 2 -27 5 -17 2 9 2 25 0 35 -3 9 -5 1 -5 -18z"/>
<path d="M7716 8365 c-9 -26 -7 -32 5 -12 6 10 9 21 6 23 -2 3 -7 -2 -11 -11z"/>
<path d="M3721 8337 c16 -12 79 -45 79 -42 0 7 -63 45 -74 45 -5 0 -7 -1 -5
-3z"/>
<path d="M7240 8315 c-7 -9 -8 -15 -2 -15 5 0 12 7 16 15 3 8 4 15 2 15 -2 0
-9 -7 -16 -15z"/>
<path d="M7693 8313 c0 -41 -3 -46 -16 -35 -16 14 -43 -14 -53 -54 -4 -14 -13
-28 -20 -31 -8 -3 -14 -11 -14 -18 0 -7 -7 -18 -15 -25 -9 -7 -13 -15 -10 -18
2 -3 21 13 40 34 19 21 50 55 68 74 43 45 48 55 41 74 -8 21 -21 20 -21 -1z"/>
<path d="M7172 8212 c-36 -53 -39 -64 -17 -56 15 6 62 91 54 98 -3 3 -19 -16
-37 -42z"/>
<path d="M9094 8244 c-4 -10 -9 -22 -11 -26 -2 -5 0 -8 5 -8 10 0 24 41 17 48
-3 3 -8 -4 -11 -14z"/>
<path d="M7086 8235 c-9 -26 -7 -32 5 -12 6 10 9 21 6 23 -2 3 -7 -2 -11 -11z"/>
<path d="M7849 8233 c-13 -16 -12 -17 4 -4 9 7 17 15 17 17 0 8 -8 3 -21 -13z"/>
<path d="M3758 8233 c7 -3 16 -2 19 1 4 3 -2 6 -13 5 -11 0 -14 -3 -6 -6z"/>
<path d="M8458 8223 c7 -3 16 -2 19 1 4 3 -2 6 -13 5 -11 0 -14 -3 -6 -6z"/>
<path d="M8603 8223 c9 -2 23 -2 30 0 6 3 -1 5 -18 5 -16 0 -22 -2 -12 -5z"/>
<path d="M5935 8170 c-3 -5 1 -10 10 -10 9 0 13 5 10 10 -3 6 -8 10 -10 10 -2
0 -7 -4 -10 -10z"/>
<path d="M7540 8150 c0 -5 -6 -7 -13 -4 -8 3 -19 -1 -25 -9 -10 -12 -8 -14 13
-12 28 4 31 -4 13 -25 -11 -12 -10 -12 3 -2 14 10 24 62 13 62 -2 0 -4 -4 -4
-10z"/>
<path d="M7456 8095 c4 -8 10 -12 15 -9 11 6 2 24 -11 24 -5 0 -7 -7 -4 -15z"/>
<path d="M7374 8084 c-18 -14 -18 -15 4 -4 12 6 22 13 22 15 0 8 -5 6 -26 -11z"/>
<path d="M6040 8080 c0 -6 7 -10 15 -10 8 0 15 2 15 4 0 2 -7 6 -15 10 -8 3
-15 1 -15 -4z"/>
<path d="M8308 8083 c12 -2 30 -2 40 0 9 3 -1 5 -23 4 -22 0 -30 -2 -17 -4z"/>
<path d="M6080 8071 c0 -6 11 -11 25 -11 14 0 53 -11 86 -25 71 -30 100 -22
37 10 -52 26 -148 43 -148 26z"/>
<path d="M8746 8055 c-9 -26 -7 -32 5 -12 6 10 9 21 6 23 -2 3 -7 -2 -11 -11z"/>
<path d="M7415 8039 c-4 -6 -5 -12 -2 -15 2 -3 7 2 10 11 7 17 1 20 -8 4z"/>
<path d="M8862 8017 c2 -20 0 -38 -6 -40 -5 -2 -6 -9 -1 -17 7 -11 10 -10 16
6 12 29 10 72 -2 80 -8 5 -10 -4 -7 -29z"/>
<path d="M8697 7946 c-20 -40 -51 -85 -67 -101 -28 -27 -33 -28 -53 -16 -19
13 -21 12 -10 -1 7 -8 10 -18 6 -21 -3 -4 1 -7 9 -7 25 0 85 69 124 143 20 38
34 70 32 72 -2 2 -20 -29 -41 -69z"/>
<path d="M5755 8000 c-12 -6 18 -7 80 -3 55 3 102 7 104 9 9 8 -165 2 -184 -6z"/>
<path d="M5798 7970 c-42 -4 -89 -11 -104 -14 -29 -8 -56 -30 -47 -40 4 -3 -1
-6 -10 -6 -9 0 -18 -4 -21 -9 -3 -4 31 -9 76 -10 45 -1 126 -6 180 -11 76 -6
107 -5 131 5 18 7 52 16 77 20 60 10 63 12 37 38 -33 33 -150 43 -319 27z"/>
<path d="M6250 7943 c0 -9 72 -33 101 -33 18 0 30 2 28 4 -6 7 -129 34 -129
29z"/>
<path d="M8840 7931 c0 -5 5 -13 10 -16 6 -3 10 -2 10 4 0 5 -4 13 -10 16 -5
3 -10 2 -10 -4z"/>
<path d="M6390 7914 c0 -7 52 -25 57 -20 2 2 -10 8 -26 14 -17 6 -31 9 -31 6z"/>
<path d="M7976 7907 c3 -10 9 -15 12 -12 3 3 0 11 -7 18 -10 9 -11 8 -5 -6z"/>
<path d="M5130 7870 c-8 -5 -10 -10 -5 -10 6 0 17 5 25 10 8 5 11 10 5 10 -5
0 -17 -5 -25 -10z"/>
<path d="M6778 7873 c7 -3 16 -2 19 1 4 3 -2 6 -13 5 -11 0 -14 -3 -6 -6z"/>
<path d="M3033 7835 c0 -8 4 -15 9 -15 4 0 8 4 8 9 0 6 -4 12 -8 15 -5 3 -9
-1 -9 -9z"/>
<path d="M6155 7835 c39 -18 47 -18 71 0 17 13 14 14 -41 14 -59 -1 -59 -1
-30 -14z"/>
<path d="M8540 7831 c0 -6 4 -13 10 -16 6 -3 7 1 4 9 -7 18 -14 21 -14 7z"/>
<path d="M4700 7710 c-8 -6 -26 -10 -39 -10 -26 0 -161 -70 -204 -106 -16 -13
-33 -24 -38 -24 -6 0 -8 -4 -4 -9 4 -7 282 125 304 145 10 9 -6 12 -19 4z"/>
<path d="M4722 7670 c-161 -58 -377 -206 -447 -307 -23 -33 -8 -29 73 22 40
25 76 45 82 45 5 0 33 19 62 43 78 64 164 120 245 160 39 20 74 41 78 47 10
16 -35 11 -93 -10z"/>
<path d="M7410 7625 c0 -3 28 -18 62 -35 34 -17 88 -49 121 -70 61 -41 89 -51
67 -25 -7 8 -19 15 -26 15 -8 0 -14 4 -14 8 0 5 -12 15 -27 22 -16 8 -35 20
-44 27 -17 14 -139 64 -139 58z"/>
<path d="M4670 7575 c-14 -8 -20 -14 -14 -15 5 0 19 7 30 15 24 18 16 19 -16
0z"/>
<path d="M7385 7579 c-4 -5 0 -9 7 -9 18 0 84 -58 80 -72 -6 -23 97 -109 138
-115 8 -1 34 -23 57 -50 24 -26 43 -42 43 -35 0 19 -35 84 -62 112 -12 13 -22
28 -21 32 5 15 -140 113 -199 134 -23 8 -40 9 -43 3z"/>
<path d="M6922 7558 c5 -15 183 -116 187 -106 4 12 -49 68 -64 68 -7 0 -20 9
-30 20 -12 13 -25 18 -38 14 -13 -4 -17 -2 -13 5 5 7 -2 10 -19 9 -14 -1 -24
-6 -23 -10z"/>
<path d="M4700 7515 c-7 -9 -8 -15 -2 -15 5 0 12 7 16 15 3 8 4 15 2 15 -2 0
-9 -7 -16 -15z"/>
<path d="M7727 7519 c8 -8 19 -8 40 -1 28 10 28 10 -11 11 -29 1 -37 -2 -29
-10z"/>
<path d="M4568 7506 c-15 -11 -12 -13 27 -11 25 0 50 6 57 13 15 15 8 15 -26
2 -17 -6 -26 -6 -26 0 0 13 -11 12 -32 -4z"/>
<path d="M5593 7488 c-42 -22 -64 -39 -68 -55 -3 -13 -12 -23 -20 -23 -8 0
-15 -4 -15 -9 0 -5 -8 -8 -17 -6 -10 1 -12 0 -5 -2 6 -3 12 -9 12 -14 0 -5 26
-9 58 -9 57 0 59 1 75 35 9 20 17 45 17 55 0 11 5 19 11 18 6 -2 15 7 20 20
11 28 7 27 -68 -10z"/>
<path d="M6487 7502 c-15 -6 -13 -9 13 -19 16 -6 30 -7 30 -2 0 5 -7 9 -16 9
-8 0 -12 5 -9 10 7 11 7 11 -18 2z"/>
<path d="M5490 7490 c-24 -15 -7 -19 20 -5 15 8 19 14 10 14 -8 1 -22 -3 -30
-9z"/>
<path d="M3080 7470 c6 -11 13 -20 16 -20 2 0 0 9 -6 20 -6 11 -13 20 -16 20
-2 0 0 -9 6 -20z"/>
<path d="M6907 7476 c-15 -7 -24 -16 -20 -21 7 -8 -1 -5 -44 12 -24 10 -8 -12
29 -39 18 -12 28 -15 23 -7 -5 7 1 5 13 -5 12 -11 20 -21 18 -24 -3 -2 17 -27
44 -55 26 -29 58 -64 71 -79 23 -26 189 -132 196 -124 2 2 0 14 -5 27 -16 43
-24 101 -13 95 15 -10 4 34 -14 54 -8 9 -13 20 -10 23 3 4 2 5 -1 2 -4 -2 -15
7 -26 21 -26 32 -121 96 -176 117 -49 19 -48 19 -85 3z"/>
<path d="M3040 7461 c0 -5 5 -13 10 -16 6 -3 10 -2 10 4 0 5 -4 13 -10 16 -5
3 -10 2 -10 -4z"/>
<path d="M6490 7449 c63 -50 80 -60 80 -47 0 23 -14 37 -53 53 -49 20 -57 19
-27 -6z"/>
<path d="M7423 7419 c16 -27 34 -49 38 -49 5 0 9 -6 9 -13 0 -7 10 -23 23 -37
12 -14 24 -36 25 -49 5 -34 88 -191 97 -183 4 4 6 0 4 -8 -5 -23 10 -71 32
-101 10 -15 19 -35 20 -46 0 -13 2 -14 6 -3 2 8 11 30 19 48 18 39 34 130 34
192 0 60 -29 103 -115 170 -19 15 -19 15 -1 -15 14 -22 3 -15 -40 25 -70 66
-129 104 -145 94 -7 -4 -9 -3 -6 3 4 6 -2 13 -12 16 -16 4 -14 -3 12 -44z"/>
<path d="M6396 7451 c-5 -8 74 -44 81 -37 4 4 -60 46 -70 46 -3 0 -8 -4 -11
-9z"/>
<path d="M7700 7445 c7 -9 15 -13 17 -11 7 7 -7 26 -19 26 -6 0 -6 -6 2 -15z"/>
<path d="M8595 7450 c-3 -5 -1 -10 4 -10 6 0 11 5 11 10 0 6 -2 10 -4 10 -3 0
-8 -4 -11 -10z"/>
<path d="M6650 7440 c0 -5 5 -10 11 -10 5 0 7 5 4 10 -3 6 -8 10 -11 10 -2 0
-4 -4 -4 -10z"/>
<path d="M4545 7430 c-16 -4 -38 -11 -47 -15 -11 -4 -18 -3 -18 5 0 6 -5 8
-11 5 -6 -5 -4 -11 6 -19 14 -10 10 -15 -32 -34 -35 -16 -60 -38 -90 -81 -61
-84 -66 -102 -17 -66 21 16 56 44 78 62 21 18 41 31 45 30 13 -3 102 47 123
71 l23 25 -50 -8 c-63 -9 -53 3 17 20 29 7 42 13 28 13 -14 0 -38 -4 -55 -8z"/>
<path d="M6815 7420 c-11 -18 39 -70 101 -105 76 -43 86 -44 49 -5 -49 51
-143 121 -150 110z"/>
<path d="M8570 7415 c-7 -9 -11 -18 -8 -20 3 -3 11 1 18 10 7 9 11 18 8 20 -3
3 -11 -1 -18 -10z"/>
<path d="M6353 7408 c2 -7 10 -12 16 -10 7 1 10 -2 6 -8 -3 -5 -1 -19 5 -30
10 -18 8 -20 -20 -20 -20 0 -30 -4 -28 -12 5 -14 318 -120 318 -107 0 25 -46
103 -74 123 -31 24 -176 76 -209 76 -11 0 -17 -5 -14 -12z"/>
<path d="M4365 7377 c-81 -51 -137 -99 -132 -111 3 -7 -4 -23 -14 -37 -17 -21
-49 -84 -49 -96 0 -2 10 -3 23 -1 14 2 46 35 94 98 39 52 72 99 72 105 1 5 15
24 33 42 40 41 36 41 -27 0z"/>
<path d="M6675 7380 c4 -14 13 -38 21 -54 8 -16 14 -35 14 -41 0 -7 8 -19 17
-26 15 -12 16 -12 9 6 -4 11 -14 41 -22 66 -8 26 -21 53 -30 60 -15 12 -16 11
-9 -11z"/>
<path d="M7787 7373 c4 -10 12 -23 17 -30 6 -7 22 -26 36 -43 28 -35 40 -39
33 -10 -3 11 -11 20 -18 20 -8 0 -19 15 -25 34 -6 19 -18 37 -26 40 -23 9 -24
8 -17 -11z"/>
<path d="M5440 7334 c0 -18 16 -34 37 -37 12 -1 29 -9 38 -17 15 -12 19 -11
36 10 20 27 24 40 12 40 -5 1 -34 3 -65 7 -32 3 -58 1 -58 -3z"/>
<path d="M5850 7280 c0 -21 17 -33 71 -48 28 -7 36 -7 36 4 0 8 -4 14 -9 14
-16 0 -7 20 10 21 26 1 -13 15 -65 23 -38 6 -43 4 -43 -14z"/>
<path d="M5628 7279 c-10 -5 -18 -19 -18 -31 0 -16 3 -18 13 -9 17 14 30 2 17
-14 -7 -9 -6 -16 4 -25 24 -19 36 -3 33 43 -3 44 -18 55 -49 36z"/>
<path d="M6820 7284 c0 -21 22 -74 31 -74 11 0 7 -22 -6 -33 -6 -4 -3 -13 8
-21 11 -9 14 -15 7 -18 -7 -2 4 -11 22 -20 32 -15 34 -15 35 3 1 10 -8 27 -21
36 -13 11 -22 28 -21 41 1 12 -6 30 -15 40 -9 9 -22 26 -28 37 -6 11 -12 15
-12 9z"/>
<path d="M8433 7268 c-21 -23 -5 -23 26 1 17 13 19 18 7 18 -9 0 -23 -9 -33
-19z"/>
<path d="M5485 7269 c-4 -6 -5 -12 -2 -15 2 -3 7 2 10 11 7 17 1 20 -8 4z"/>
<path d="M6926 7266 c3 -8 11 -14 17 -13 6 1 12 -8 13 -20 1 -13 2 -28 3 -34
0 -6 10 -9 21 -6 22 6 45 -25 36 -48 -3 -9 0 -12 9 -9 9 4 16 -3 21 -20 3 -14
10 -26 15 -26 13 0 11 9 -15 75 -21 53 -30 63 -75 88 -36 20 -49 24 -45 13z"/>
<path d="M7740 7260 c0 -19 3 -21 12 -12 9 9 9 15 0 24 -9 9 -12 7 -12 -12z"/>
<path d="M4415 7252 c-16 -11 -37 -27 -45 -36 -8 -10 7 -4 33 14 26 17 47 33
47 36 0 6 -3 5 -35 -14z"/>
<path d="M5744 7248 c3 -13 6 -29 6 -37 0 -25 13 -2 17 29 2 22 -1 30 -13 30
-12 0 -15 -6 -10 -22z"/>
<path d="M6450 7225 c47 -48 176 -119 155 -85 -3 6 -2 10 4 10 5 0 12 -4 15
-9 3 -5 14 -7 25 -4 34 9 12 44 -43 68 -47 21 -179 65 -194 65 -3 0 14 -20 38
-45z"/>
<path d="M7270 7239 c0 -23 52 -165 66 -179 12 -12 14 -11 14 10 0 27 -21 100
-40 142 -13 27 -40 46 -40 27z"/>
<path d="M7890 7233 c0 -22 11 -37 27 -40 7 -2 10 4 7 12 -4 8 -11 12 -16 9
-6 -4 -8 2 -3 15 4 12 2 21 -4 21 -6 0 -11 -8 -11 -17z"/>
<path d="M5860 7214 c0 -21 4 -29 15 -29 6 0 15 -4 21 -8 16 -10 35 15 24 32
-12 20 -60 24 -60 5z"/>
<path d="M4089 7215 c-1 -5 -1 -13 0 -17 0 -5 -5 -8 -13 -8 -8 0 -13 -8 -12
-17 0 -10 -5 -17 -11 -15 -7 1 -12 -1 -12 -5 3 -21 -2 -32 -13 -28 -8 3 -24
-15 -40 -43 -33 -59 -51 -105 -39 -97 15 9 74 99 74 112 0 7 3 10 7 8 4 -2 20
12 37 33 41 52 43 56 32 72 -5 8 -9 11 -10 5z"/>
<path d="M4985 7190 c3 -5 8 -10 11 -10 2 0 4 5 4 10 0 6 -5 10 -11 10 -5 0
-7 -4 -4 -10z"/>
<path d="M6730 7190 c0 -5 5 -10 11 -10 5 0 7 5 4 10 -3 6 -8 10 -11 10 -2 0
-4 -4 -4 -10z"/>
<path d="M7066 7188 c46 -76 77 -117 98 -132 14 -9 26 -14 26 -10 0 15 -92
135 -112 145 -16 9 -19 8 -12 -3z"/>
<path d="M6396 7155 c9 -14 21 -25 28 -26 6 0 18 -2 26 -5 8 -2 29 -7 45 -10
30 -7 30 -7 11 14 -16 18 -93 52 -118 52 -5 0 -1 -11 8 -25z"/>
<path d="M7741 7089 c-8 -52 -15 -105 -16 -119 -1 -14 -7 -36 -13 -50 -6 -17
-6 -27 2 -32 7 -5 12 2 14 16 2 14 10 27 18 30 10 4 13 2 8 -7 -6 -9 -4 -9 8
1 11 9 18 10 23 2 3 -5 3 -10 -1 -10 -4 0 -1 -6 7 -12 8 -7 12 -12 10 -10 -3
1 -10 -8 -17 -20 -11 -21 -9 -25 29 -50 23 -15 46 -28 50 -28 13 0 -3 60 -22
81 -9 11 -16 23 -17 27 -3 24 -17 62 -24 62 -4 0 -13 13 -18 29 -9 25 -8 28 7
24 10 -2 26 -21 35 -41 32 -69 67 -123 76 -117 16 10 -12 90 -65 184 -84 151
-79 148 -94 40z"/>
<path d="M7165 7118 c49 -56 60 -66 51 -50 -4 7 -2 12 5 12 18 0 -17 36 -59
61 l-36 20 39 -43z"/>
<path d="M4405 7120 c-3 -5 -2 -10 4 -10 5 0 13 5 16 10 3 6 2 10 -4 10 -5 0
-13 -4 -16 -10z"/>
<path d="M3011 7089 c-6 -18 -11 -37 -10 -43 0 -6 7 7 15 28 8 22 12 41 10 43
-2 2 -9 -10 -15 -28z"/>
<path d="M4048 7079 c-39 -53 -43 -63 -22 -49 26 17 56 58 52 72 -2 6 -16 -4
-30 -23z"/>
<path d="M4850 7100 c-13 -8 -13 -10 2 -10 9 0 20 5 23 10 8 13 -5 13 -25 0z"/>
<path d="M4346 7085 c-15 -11 -16 -15 -5 -15 8 0 24 7 35 15 14 11 15 14 4 14
-8 0 -24 -6 -34 -14z"/>
<path d="M6540 6954 c0 -19 67 -141 82 -150 7 -4 8 -2 4 4 -3 6 3 16 14 22 22
12 24 50 3 57 -13 5 -12 -14 1 -36 6 -9 5 -12 -5 -9 -17 6 -33 79 -19 88 5 3
-6 14 -25 23 -44 21 -55 21 -55 1z"/>
<path d="M4890 6916 c0 -2 7 -9 15 -16 13 -11 14 -10 9 4 -5 14 -24 23 -24 12z"/>
<path d="M4924 6904 c3 -9 6 -18 6 -20 0 -3 9 0 20 6 24 13 17 30 -12 30 -14
0 -18 -5 -14 -16z"/>
<path d="M6370 6906 c0 -2 8 -10 18 -17 15 -13 16 -12 3 4 -13 16 -21 21 -21
13z"/>
<path d="M5004 6874 c-18 -14 -18 -15 4 -4 12 6 22 13 22 15 0 8 -5 6 -26 -11z"/>
<path d="M4300 6860 c-59 -31 -117 -88 -148 -144 -31 -58 -47 -116 -32 -116 5
0 6 -7 3 -17 -5 -12 -3 -14 8 -7 8 4 21 9 29 11 16 2 25 12 75 90 42 66 108
193 103 198 -2 2 -19 -5 -38 -15z"/>
<path d="M8225 6870 c11 -5 29 -8 40 -8 16 0 15 2 -5 8 -34 11 -60 11 -35 0z"/>
<path d="M7966 6855 c4 -8 8 -15 10 -15 2 0 4 7 4 15 0 8 -4 15 -10 15 -5 0
-7 -7 -4 -15z"/>
<path d="M4380 6839 c0 -5 5 -7 10 -4 6 3 10 8 10 11 0 2 -4 4 -10 4 -5 0 -10
-5 -10 -11z"/>
<path d="M8364 6822 c75 -41 109 -89 114 -162 4 -52 0 -69 -26 -123 -17 -34
-47 -80 -67 -102 -20 -22 -46 -51 -58 -64 l-22 -25 26 20 c39 29 107 110 129
154 10 20 24 58 31 84 22 89 -24 177 -121 226 -58 30 -63 24 -6 -8z"/>
<path d="M6972 6832 c-21 -7 -21 -9 24 -67 77 -99 106 -126 128 -120 20 6 20
5 4 -8 -10 -8 -15 -17 -12 -20 9 -9 36 21 30 32 -3 4 -7 24 -10 44 -5 43 -31
99 -55 122 -21 18 -76 27 -109 17z m148 -172 c0 -5 -4 -10 -10 -10 -5 0 -10 5
-10 10 0 6 5 10 10 10 6 0 10 -4 10 -10z"/>
<path d="M6430 6817 c0 -8 3 -17 7 -20 3 -4 8 -24 10 -45 2 -27 1 -33 -7 -22
-5 8 -10 10 -10 4 0 -18 12 -24 26 -13 8 6 21 9 29 5 14 -5 14 -2 0 24 -8 16
-19 32 -25 35 -5 3 -10 15 -10 26 0 10 -4 19 -10 19 -5 0 -10 -6 -10 -13z"/>
<path d="M8230 6825 c0 -2 14 -12 30 -20 102 -53 137 -174 79 -274 -11 -18
-18 -36 -15 -38 8 -9 45 74 52 116 13 84 -18 146 -97 197 -39 24 -49 28 -49
19z"/>
<path d="M4362 6808 c-7 -7 -12 -19 -12 -28 0 -9 -5 -21 -11 -27 -10 -10 -41
-103 -34 -103 2 0 21 17 43 38 42 39 68 100 38 89 -19 -8 -21 14 -4 31 7 7 8
12 2 12 -5 0 -15 -5 -22 -12z"/>
<path d="M6913 6804 c-6 -17 21 -72 45 -90 9 -7 12 -16 7 -24 -5 -8 -4 -11 3
-7 5 4 22 -6 35 -23 14 -17 29 -26 32 -20 3 5 3 10 -2 10 -4 0 -1 5 7 11 12 9
12 10 -4 5 -14 -5 -17 -2 -12 9 3 10 -13 40 -45 80 -28 36 -53 65 -55 65 -3 0
-7 -7 -11 -16z m97 -98 c0 -3 -4 -8 -10 -11 -5 -3 -10 -1 -10 4 0 6 5 11 10
11 6 0 10 -2 10 -4z"/>
<path d="M8137 6721 c-3 -12 -1 -21 3 -21 15 0 23 21 12 32 -6 6 -11 2 -15
-11z"/>
<path d="M4439 6717 c-18 -15 -35 -65 -44 -132 -8 -57 -4 -55 48 23 30 46 34
58 26 84 -11 39 -12 40 -30 25z"/>
<path d="M3866 6705 c-9 -26 -7 -32 5 -12 6 10 9 21 6 23 -2 3 -7 -2 -11 -11z"/>
<path d="M6487 6699 c12 -12 24 -21 27 -18 2 2 -8 13 -22 23 l-27 19 22 -24z"/>
<path d="M3117 6663 c-20 -38 -50 -133 -45 -139 3 -2 11 15 18 38 7 24 21 60
32 81 11 22 17 41 14 44 -2 3 -11 -8 -19 -24z"/>
<path d="M4326 6647 c-25 -23 -47 -55 -51 -72 -3 -17 -10 -43 -15 -60 -9 -29
-9 -29 -7 8 3 31 1 35 -10 24 -33 -33 -58 -231 -34 -274 5 -11 9 -22 8 -25 -1
-2 4 3 11 12 7 8 39 60 69 115 50 88 59 112 75 205 9 58 18 106 18 108 1 12
-28 -6 -64 -41z"/>
<path d="M7848 6641 c12 -10 19 -20 16 -24 -3 -3 -1 -8 5 -12 7 -3 11 2 11 14
0 11 -9 25 -19 31 -30 16 -36 12 -13 -9z"/>
<path d="M3675 6619 c-9 -17 -14 -33 -11 -36 3 -3 10 7 16 22 6 15 13 32 16
36 3 5 3 9 0 9 -3 0 -13 -14 -21 -31z"/>
<path d="M4433 6553 c-49 -74 -52 -82 -57 -158 -2 -44 -2 -66 0 -50 12 71 25
107 39 101 17 -6 53 25 48 42 -3 6 0 12 6 12 11 0 25 75 19 109 -2 18 -13 7
-55 -56z"/>
<path d="M3216 6605 c-9 -26 -7 -32 5 -12 6 10 9 21 6 23 -2 3 -7 -2 -11 -11z"/>
<path d="M4192 6542 c-19 -40 -32 -85 -32 -107 0 -56 15 -33 34 54 9 41 22 83
27 93 6 11 9 22 6 24 -2 2 -18 -27 -35 -64z"/>
<path d="M3704 6577 c-10 -12 -19 -24 -20 -27 0 -3 -3 -12 -7 -20 -14 -34 -23
-88 -22 -127 1 -25 -3 -43 -9 -43 -6 0 -5 -4 2 -9 7 -4 16 -20 20 -35 6 -23
11 -11 32 71 13 54 29 108 37 120 17 29 17 79 -1 86 -7 3 -22 -4 -32 -16z"/>
<path d="M4866 6570 c-6 -9 -19 -19 -28 -23 -22 -8 -24 -24 -3 -24 8 0 12 4
10 8 -3 3 7 9 20 12 14 2 27 1 30 -3 6 -10 -35 -51 -45 -45 -5 3 -5 -7 0 -24
5 -19 4 -33 -3 -40 -8 -8 -4 -11 15 -11 14 0 29 -7 32 -16 4 -12 1 -14 -14 -9
-26 8 -27 -16 0 -40 11 -10 17 -22 14 -26 -3 -5 0 -9 6 -9 6 0 9 -4 6 -9 -3
-5 6 -8 20 -8 29 0 27 18 -4 32 -27 12 -37 34 -14 30 9 -2 21 -4 25 -4 5 -1 6
-5 2 -10 -3 -6 4 -15 15 -21 12 -6 30 -20 41 -31 23 -23 45 -25 53 -4 3 8 12
15 20 15 10 0 12 7 8 22 -3 14 -1 19 6 14 8 -5 10 -2 6 8 -3 9 -11 16 -16 16
-6 0 -8 6 -5 14 11 29 -64 153 -84 140 -5 -3 -6 1 -3 9 2 7 -4 25 -15 38 -11
13 -20 18 -21 12 0 -7 -5 -13 -11 -13 -5 0 -7 4 -4 10 10 17 -46 7 -59 -10z"/>
<path d="M3942 6535 c-6 -14 -24 -28 -39 -31 -51 -13 -66 -44 -65 -134 0 -57
68 -187 87 -168 3 3 8 35 12 72 4 50 3 66 -7 66 -10 0 -11 15 -6 61 3 34 10
67 15 73 15 19 30 75 22 80 -5 3 -13 -6 -19 -19z"/>
<path d="M4054 6549 c-14 -24 -8 -106 10 -124 12 -13 15 -26 11 -49 -6 -29 -5
-30 10 -12 18 23 20 56 4 56 -8 0 -10 15 -5 49 4 29 2 52 -3 56 -6 3 -8 12 -4
20 6 17 -12 20 -23 4z"/>
<path d="M8060 6530 c0 -5 5 -10 10 -10 6 0 10 5 10 10 0 6 -4 10 -10 10 -5 0
-10 -4 -10 -10z"/>
<path d="M2880 6509 c0 -11 4 -18 10 -14 5 3 7 12 3 20 -7 21 -13 19 -13 -6z"/>
<path d="M4497 6443 c-5 -26 -4 -26 9 -8 16 22 18 35 5 35 -5 0 -11 -12 -14
-27z"/>
<path d="M4408 6399 c-5 -32 3 -37 22 -14 10 12 10 15 -1 15 -12 0 -12 2 -1 9
11 7 11 9 -1 14 -11 4 -16 -3 -19 -24z"/>
<path d="M4309 6348 c-17 -35 -35 -73 -40 -86 -8 -22 -8 -22 28 -7 20 9 38 17
39 18 4 5 12 137 8 137 -2 0 -18 -28 -35 -62z"/>
<path d="M4807 6354 c-9 -10 2 -24 18 -24 9 0 12 6 9 15 -6 16 -17 19 -27 9z"/>
<path d="M3802 6323 c2 -20 -2 -29 -14 -31 -10 -2 -18 1 -18 7 0 28 -20 7 -26
-26 -3 -21 -13 -49 -21 -62 -10 -16 -14 -38 -10 -67 5 -48 53 -156 93 -211
l28 -38 -31 28 c-35 33 -75 103 -94 164 -6 23 -16 40 -20 37 -12 -7 -2 -243
10 -258 6 -7 8 -15 5 -19 -3 -3 -1 -14 6 -24 10 -16 11 -16 6 0 -3 9 -1 17 4
17 6 0 10 -6 11 -12 1 -26 9 -61 18 -75 6 -12 13 -7 29 22 12 20 22 40 22 46
0 5 6 9 14 9 16 0 31 34 21 49 -3 5 5 11 17 13 30 4 68 72 68 123 0 22 -9 64
-20 94 -18 45 -18 52 -5 48 20 -8 19 -5 -10 45 -14 24 -37 67 -50 96 -28 58
-38 65 -33 25z m27 -75 c1 -5 -4 -8 -10 -8 -5 0 -8 4 -4 9 3 5 1 12 -5 16 -6
4 -7 11 -3 18 6 10 20 -13 22 -35z"/>
<path d="M4106 6315 c2 -11 4 -30 4 -42 0 -13 5 -23 10 -23 6 0 10 14 10 30 0
17 -4 30 -9 30 -5 0 -11 6 -14 13 -2 6 -3 3 -1 -8z"/>
<path d="M4676 6255 c-4 -27 -13 -72 -21 -99 -8 -26 -15 -82 -15 -123 0 -84
28 -213 41 -191 5 7 9 9 9 3 0 -5 7 1 15 15 7 14 15 23 17 21 6 -7 48 10 48
19 0 5 -12 35 -26 66 -48 105 -67 174 -46 174 4 0 18 -25 32 -55 14 -30 28
-55 32 -55 5 0 8 -6 8 -13 0 -8 9 -22 19 -31 30 -27 34 -3 10 51 -47 107 -97
219 -106 243 -10 23 -11 21 -17 -25z"/>
<path d="M2892 6260 c0 -19 2 -27 5 -17 2 9 2 25 0 35 -3 9 -5 1 -5 -18z"/>
<path d="M3972 6225 c0 -51 1 -55 9 -30 5 18 5 43 0 60 -8 25 -9 20 -9 -30z"/>
<path d="M4960 6268 c0 -4 4 -8 9 -8 6 0 12 4 15 8 3 5 -1 9 -9 9 -8 0 -15 -4
-15 -9z"/>
<path d="M2754 6245 c4 -24 16 -30 16 -7 0 12 -4 22 -9 22 -5 0 -8 -7 -7 -15z"/>
<path d="M4906 6245 c4 -9 11 -14 16 -13 15 5 11 23 -6 26 -11 2 -14 -2 -10
-13z"/>
<path d="M4600 6218 c0 -18 -2 -20 -9 -9 -16 25 -26 -53 -26 -196 0 -100 3
-135 14 -145 11 -11 13 -9 8 10 -4 17 -1 22 11 20 12 -2 16 3 14 20 -2 12 1
22 7 22 6 0 9 39 9 98 -1 53 2 107 6 120 8 25 -10 82 -25 82 -5 0 -9 -10 -9
-22z"/>
<path d="M4790 6232 c0 -7 11 -25 25 -40 14 -15 25 -24 25 -21 0 3 -11 20 -25
39 -14 19 -25 28 -25 22z"/>
<path d="M3091 6214 c0 -11 3 -14 6 -6 3 7 2 16 -1 19 -3 4 -6 -2 -5 -13z"/>
<path d="M4017 6223 c-11 -10 -8 -73 3 -73 6 0 10 18 10 40 0 41 -2 45 -13 33z"/>
<path d="M2997 6155 c3 -38 7 -86 7 -105 3 -46 25 -140 40 -165 7 -11 25 -55
40 -97 15 -43 29 -78 31 -78 2 0 2 11 1 25 0 14 -4 25 -8 25 -4 0 -4 7 -1 17
4 10 2 14 -4 10 -9 -6 -40 83 -58 168 -3 11 -7 32 -11 48 -3 15 -10 24 -16 21
-6 -4 -8 1 -5 12 3 11 0 57 -8 104 l-15 85 7 -70z"/>
<path d="M2560 6199 c0 -5 5 -7 10 -4 6 3 10 8 10 11 0 2 -4 4 -10 4 -5 0 -10
-5 -10 -11z"/>
<path d="M3101 6185 c1 -19 18 -51 18 -35 0 8 -4 22 -9 30 -5 8 -9 11 -9 5z"/>
<path d="M4487 6176 c-11 -11 -17 -12 -19 -4 -3 7 -10 -16 -18 -50 -13 -62 -8
-151 9 -161 4 -4 11 -16 15 -28 4 -13 15 -23 26 -23 26 0 34 50 27 168 -7 103
-15 122 -40 98z"/>
<path d="M8062 6153 c-5 -10 -15 -48 -22 -85 -9 -53 -10 -78 0 -118 7 -27 15
-50 20 -50 9 0 21 97 21 168 0 29 4 64 9 78 7 18 6 24 -5 24 -8 0 -18 -8 -23
-17z"/>
<path d="M3990 6101 c0 -12 5 -21 10 -21 6 0 10 6 10 14 0 8 -4 18 -10 21 -5
3 -10 -3 -10 -14z"/>
<path d="M3524 6068 c-4 -7 -3 -8 4 -4 7 4 12 2 12 -4 0 -6 5 -8 10 -5 11 7 4
25 -10 25 -5 0 -12 -5 -16 -12z"/>
<path d="M2941 5984 c0 -11 3 -14 6 -6 3 7 2 16 -1 19 -3 4 -6 -2 -5 -13z"/>
<path d="M3425 5970 c-10 -11 -16 -22 -13 -25 3 -3 13 6 22 20 20 30 16 32 -9
5z"/>
<path d="M3390 5935 c0 -8 4 -15 10 -15 5 0 7 7 4 15 -4 8 -8 15 -10 15 -2 0
-4 -7 -4 -15z"/>
<path d="M4048 5920 c-7 -24 -3 -38 8 -28 3 4 4 17 2 30 l-3 23 -7 -25z"/>
<path d="M3455 5900 c-3 -5 1 -10 9 -10 9 0 16 5 16 10 0 6 -4 10 -9 10 -6 0
-13 -4 -16 -10z"/>
<path d="M3895 5890 c-10 -11 -15 -23 -12 -27 7 -6 36 25 37 40 0 11 -6 8 -25
-13z"/>
<path d="M3919 5864 c-10 -13 -10 -20 0 -36 11 -18 10 -19 -8 -13 -33 10 -44
-25 -18 -55 19 -22 19 -23 2 -8 -20 16 -21 16 -33 -3 -7 -11 -10 -24 -7 -29 3
-4 0 -10 -7 -12 -15 -5 -20 -103 -7 -144 5 -17 26 -46 46 -65 21 -20 33 -27
30 -16 -10 26 8 20 36 -13 l25 -29 -1 104 c-2 82 -4 101 -14 93 -10 -8 -13 -2
-15 28 -1 22 -3 55 -4 74 -2 19 -3 59 -4 88 0 28 -2 52 -4 52 -2 0 -9 -7 -17
-16z"/>
<path d="M3641 5826 c-9 -11 -9 -16 0 -22 9 -5 4 -14 -16 -30 -27 -21 -27 -23
-11 -45 l17 -24 -7 28 c-5 21 -3 27 10 27 18 0 20 -12 7 -58 -5 -17 -6 -32 -2
-32 4 0 7 -18 7 -39 0 -34 15 -78 45 -131 5 -8 13 -26 19 -40 18 -46 35 -73
48 -78 20 -6 6 91 -20 146 -23 49 -68 232 -68 280 0 34 -10 41 -29 18z"/>
<path d="M3595 5801 c-3 -5 -1 -12 5 -16 5 -3 10 1 10 9 0 18 -6 21 -15 7z"/>
<path d="M4137 5800 c-11 -31 -15 -60 -8 -60 4 0 12 -17 18 -37 l10 -38 1 50
c0 58 -12 109 -21 85z"/>
<path d="M3811 5756 c-15 -18 -22 -56 -10 -56 5 0 9 1 9 3 0 1 4 17 9 35 11
35 9 39 -8 18z"/>
<path d="M4110 5696 c0 -14 5 -26 10 -26 6 0 10 9 10 19 0 11 -4 23 -10 26 -6
4 -10 -5 -10 -19z"/>
<path d="M3470 5695 c-16 -19 0 -19 26 0 16 12 16 14 3 15 -9 0 -22 -7 -29
-15z"/>
<path d="M3557 5696 c-3 -8 0 -17 8 -20 7 -2 15 -17 17 -32 2 -15 10 -30 18
-32 12 -4 13 -2 3 9 -6 8 -14 31 -18 52 -7 38 -19 48 -28 23z"/>
<path d="M3960 5675 c0 -8 5 -15 10 -15 6 0 10 7 10 15 0 8 -4 15 -10 15 -5 0
-10 -7 -10 -15z"/>
<path d="M3499 5619 c-14 -27 4 -50 24 -30 10 10 9 11 -5 6 -11 -4 -18 -2 -18
4 0 6 4 11 8 11 5 0 9 7 9 15 0 20 -4 19 -18 -6z"/>
<path d="M4260 5590 c0 -39 21 -125 38 -156 12 -22 81 -79 87 -72 9 8 -23 106
-47 143 -14 22 -25 44 -26 49 0 5 -4 12 -9 15 -5 3 -17 17 -26 31 l-17 24 0
-34z"/>
<path d="M4864 5598 c-3 -10 -14 -18 -24 -18 -11 0 -24 -8 -29 -17 -6 -10 -11
-13 -11 -7 0 15 -59 24 -67 11 -8 -13 47 -60 109 -92 50 -26 72 -19 40 13 -18
18 -18 19 10 31 22 10 27 18 23 32 -7 22 -5 22 29 9 30 -11 35 4 12 35 -19 26
-84 29 -92 3z m36 -7 c0 -17 -18 -21 -24 -6 -3 9 0 15 9 15 8 0 15 -4 15 -9z"/>
<path d="M3600 5574 c0 -8 5 -12 10 -9 6 4 8 11 5 16 -9 14 -15 11 -15 -7z"/>
<path d="M4101 5564 c0 -11 3 -14 6 -6 3 7 2 16 -1 19 -3 4 -6 -2 -5 -13z"/>
<path d="M4390 5557 c0 -16 5 -38 12 -50 12 -22 12 -21 18 8 6 30 7 30 19 -15
10 -36 15 -41 22 -27 12 20 -15 77 -36 77 -8 0 -19 8 -24 18 -9 14 -10 13 -11
-11z"/>
<path d="M4220 5553 c1 -10 7 -29 15 -43 l15 -25 -4 30 c-2 17 -5 36 -5 43 -1
19 -21 14 -21 -5z"/>
<path d="M4180 5497 c0 -8 9 -25 20 -38 l20 -24 -11 33 c-12 35 -29 52 -29 29z"/>
<path d="M3420 5496 c0 -2 8 -10 18 -17 15 -13 16 -12 3 4 -13 16 -21 21 -21
13z"/>
<path d="M7085 5479 c-4 -5 -3 -9 2 -9 4 0 1 -4 -7 -10 -8 -5 -21 -5 -29 0
-21 11 -55 -7 -75 -41 -9 -16 -14 -29 -10 -29 5 0 3 -5 -3 -11 -6 -6 -9 -18
-6 -25 3 -8 0 -14 -7 -14 -7 0 -10 -7 -6 -15 3 -8 1 -15 -4 -15 -20 0 -9 -28
13 -35 21 -6 20 -7 -10 -17 -48 -16 -39 -35 13 -29 6 1 11 -5 11 -14 0 -8 -4
-12 -9 -9 -4 3 -8 0 -8 -5 0 -20 38 -11 100 21 76 40 120 82 113 105 -2 6 1
14 6 18 6 3 11 1 11 -6 0 -8 4 -8 16 2 14 12 14 14 -2 26 -15 11 -16 15 -4 26
10 9 12 9 6 0 -4 -7 -3 -13 2 -13 6 0 13 7 16 15 4 11 -3 19 -20 25 -16 7 -24
16 -21 24 7 17 -79 51 -88 35z"/>
<path d="M3825 5444 c12 -64 51 -137 108 -199 30 -33 58 -57 62 -53 4 4 -4 31
-18 62 -14 30 -23 57 -20 60 7 7 -53 101 -83 131 -12 12 -30 25 -39 29 -15 5
-16 2 -10 -30z"/>
<path d="M7985 5470 c-3 -5 -1 -10 4 -10 6 0 11 5 11 10 0 6 -2 10 -4 10 -3 0
-8 -4 -11 -10z"/>
<path d="M4470 5440 c11 -7 11 -10 2 -10 -7 0 -10 -5 -6 -11 4 -8 9 -7 15 2 9
15 3 29 -14 29 -7 0 -6 -4 3 -10z"/>
<path d="M4755 5429 c11 -36 50 -73 70 -65 27 10 13 36 -34 64 l-43 25 7 -24z"/>
<path d="M8906 5435 c-9 -26 -7 -32 5 -12 6 10 9 21 6 23 -2 3 -7 -2 -11 -11z"/>
<path d="M4175 5420 c-9 -14 28 -125 66 -198 32 -63 73 -113 110 -132 31 -17
23 5 -21 55 -22 25 -40 55 -40 65 0 10 -9 25 -20 33 -11 8 -17 16 -14 20 3 3
0 16 -7 29 -7 12 -12 26 -11 31 1 4 -2 7 -7 7 -5 0 -7 9 -4 20 6 22 -42 87
-52 70z"/>
<path d="M4610 5413 c1 -5 12 -21 26 -38 17 -21 23 -24 18 -10 -4 11 -11 25
-15 31 -5 6 -6 14 -2 17 3 4 -1 7 -10 7 -9 0 -17 -3 -17 -7z"/>
<path d="M8886 5385 c-9 -26 -7 -32 5 -12 6 10 9 21 6 23 -2 3 -7 -2 -11 -11z"/>
<path d="M3790 5365 c0 -11 5 -27 10 -35 8 -12 10 -12 10 5 0 11 -5 27 -10 35
-8 12 -10 12 -10 -5z"/>
<path d="M4711 5318 c12 -42 26 -56 35 -34 9 22 -11 66 -30 66 -12 0 -13 -6
-5 -32z"/>
<path d="M4665 5320 c3 -5 11 -10 16 -10 6 0 7 5 4 10 -3 6 -11 10 -16 10 -6
0 -7 -4 -4 -10z"/>
<path d="M8860 5324 c0 -5 -20 -45 -45 -88 -46 -81 -56 -107 -29 -71 25 32 86
157 80 163 -3 3 -6 1 -6 -4z"/>
<path d="M4340 5302 c6 -13 14 -21 18 -18 3 4 -2 14 -12 24 -18 16 -18 16 -6
-6z"/>
<path d="M3890 5262 c0 -13 63 -138 83 -163 15 -20 77 -52 77 -40 0 4 -7 14
-15 21 -8 7 -12 16 -9 21 3 5 -19 35 -49 67 -29 31 -61 68 -70 82 -9 13 -17
19 -17 12z"/>
<path d="M3880 5191 c0 -5 7 -15 17 -22 15 -13 15 -12 4 9 -12 23 -21 28 -21
13z"/>
<path d="M4947 5148 c-13 -18 -18 -20 -25 -10 -7 11 -12 11 -24 -2 -11 -11
-18 -12 -27 -3 -15 15 -13 -3 4 -33 8 -14 14 -19 15 -11 0 8 7 11 20 8 25 -6
46 11 54 46 8 33 3 34 -17 5z"/>
<path d="M4000 5054 c0 -19 57 -99 93 -131 20 -18 37 -38 37 -46 0 -14 100
-117 114 -117 5 0 -8 18 -28 40 -20 22 -36 43 -36 46 0 4 11 -5 25 -20 13 -14
25 -26 27 -26 2 0 2 20 0 45 -3 38 -10 49 -47 80 -55 44 -73 45 -66 2 1 -5 -3
-6 -9 -2 -5 3 -10 15 -10 25 0 10 -10 29 -23 42 -44 45 -77 71 -77 62z"/>
<path d="M6916 5040 c-22 -10 -42 -18 -45 -15 -9 5 -8 -41 1 -50 9 -10 110 44
103 55 -3 6 -1 10 4 10 6 0 11 5 11 10 0 16 -33 12 -74 -10z"/>
<path d="M7155 4994 c-8 -9 -25 -35 -37 -58 -11 -22 -23 -43 -27 -46 -17 -14
-32 -40 -24 -40 13 0 103 79 103 91 0 5 -7 9 -17 9 -14 0 -15 2 -1 18 32 37
35 58 3 26z"/>
<path d="M5265 4988 c-11 -6 -24 -17 -28 -25 -4 -7 -15 -13 -23 -13 -8 0 -12
5 -9 10 3 6 1 10 -4 10 -9 0 -9 -28 -1 -50 4 -8 7 -24 9 -40 1 -12 4 -12 12 3
6 9 15 15 20 12 5 -4 7 -11 4 -16 -4 -5 3 -9 14 -9 12 0 21 5 21 10 0 6 -4 10
-10 10 -5 0 -10 7 -10 16 0 8 4 12 10 9 5 -3 20 4 33 17 13 13 32 22 42 21 14
-2 15 -1 5 4 -8 3 -26 14 -40 24 -20 13 -30 15 -45 7z"/>
<path d="M7050 4977 c-48 -43 -54 -55 -37 -72 19 -18 28 -19 25 -2 -2 6 2 11
8 10 14 -3 28 43 18 59 -4 6 -3 8 3 5 6 -4 16 0 23 8 20 25 -11 18 -40 -8z"/>
<path d="M7195 4990 c-3 -5 -1 -10 4 -10 6 0 11 5 11 10 0 6 -2 10 -4 10 -3 0
-8 -4 -11 -10z"/>
<path d="M6903 4946 l-51 -24 9 -39 c5 -21 9 -41 9 -45 0 -5 8 0 18 10 10 9
17 19 16 21 -2 2 8 17 21 33 14 16 25 36 25 43 0 7 6 16 13 18 6 3 8 6 2 6 -5
0 -33 -10 -62 -23z"/>
<path d="M6653 4943 c-7 -2 -13 -11 -13 -19 0 -9 -11 -14 -27 -14 -56 0 -146
-41 -190 -86 l-22 -23 27 -6 c43 -9 229 61 229 87 0 7 3 26 7 41 3 15 5 27 4
26 -2 0 -9 -3 -15 -6z"/>
<path d="M6490 4922 c-23 -10 -29 -17 -19 -19 8 -2 35 5 60 16 35 16 39 20 19
19 -14 0 -41 -7 -60 -16z"/>
<path d="M5298 4893 c7 -3 16 -2 19 1 4 3 -2 6 -13 5 -11 0 -14 -3 -6 -6z"/>
<path d="M6761 4884 c-19 -8 -31 -17 -28 -20 3 -3 2 -16 -2 -28 -5 -11 -11
-33 -14 -47 l-7 -26 44 20 c42 19 44 22 48 69 1 26 1 48 -2 48 -3 -1 -20 -7
-39 -16z"/>
<path d="M6977 4876 c-13 -20 -14 -25 -3 -29 9 -4 16 4 19 21 7 36 3 38 -16 8z"/>
<path d="M5696 4865 c-11 -8 -27 -15 -36 -15 -45 0 -61 -58 -28 -102 12 -16
16 -16 41 -4 15 8 27 13 27 10 0 -2 18 5 41 16 22 12 38 26 36 33 -2 7 3 17
12 23 12 10 8 15 -27 33 -48 25 -42 24 -66 6z"/>
<path d="M7015 4870 c-3 -5 -1 -10 4 -10 6 0 11 5 11 10 0 6 -2 10 -4 10 -3 0
-8 -4 -11 -10z"/>
<path d="M3330 4845 c-20 -24 -6 -28 15 -5 10 11 13 20 8 20 -6 0 -16 -7 -23
-15z"/>
<path d="M4255 4830 c3 -19 16 -48 27 -64 11 -16 15 -25 8 -21 -9 6 -10 3 -2
-12 16 -29 40 -46 53 -37 8 4 9 3 5 -4 -4 -7 10 -20 36 -33 l43 -21 -36 38
c-20 22 -60 73 -89 114 -47 68 -51 72 -45 40z m70 -100 c3 -5 1 -10 -4 -10 -6
0 -11 5 -11 10 0 6 2 10 4 10 3 0 8 -4 11 -10z"/>
<path d="M3224 4842 c3 -5 -8 -19 -25 -31 -24 -18 -30 -19 -35 -7 -7 17 -30
11 -38 -10 -4 -9 -2 -12 5 -8 6 4 15 1 19 -6 6 -10 18 -5 49 19 34 27 46 51
25 51 -3 0 -3 -4 0 -8z"/>
<path d="M4300 4833 c0 -20 105 -143 122 -143 5 0 2 12 -6 28 -17 32 -116 131
-116 115z"/>
<path d="M7075 4823 c-30 -17 -55 -37 -55 -47 0 -3 11 -5 25 -4 16 2 24 7 21
15 -3 7 0 13 7 13 7 0 18 9 25 20 14 24 15 24 -23 3z"/>
<path d="M6515 4794 c-131 -46 -141 -55 -58 -57 12 -1 20 -5 17 -9 -8 -12 50
-5 58 7 5 6 8 3 8 -7 0 -10 5 -18 10 -18 6 0 10 5 10 10 0 6 8 10 18 10 24 0
46 25 60 68 14 41 8 41 -123 -4z"/>
<path d="M5519 4788 c-1 -7 -1 -18 0 -24 1 -6 -10 -11 -25 -11 -14 0 -33 -8
-42 -16 -14 -15 -14 -17 1 -23 10 -3 42 -3 73 1 51 6 54 8 41 23 -8 9 -17 26
-18 36 -5 23 -28 34 -30 14z"/>
<path d="M3125 4750 c-3 -5 -1 -10 4 -10 6 0 11 5 11 10 0 6 -2 10 -4 10 -3 0
-8 -4 -11 -10z"/>
<path d="M6935 4740 c-3 -6 1 -7 9 -4 18 7 21 14 7 14 -6 0 -13 -4 -16 -10z"/>
<path d="M7105 4724 c-62 -32 -139 -104 -112 -104 10 0 25 6 32 14 8 7 31 16
53 19 41 7 61 24 80 70 14 33 9 34 -53 1z"/>
<path d="M6705 4730 c-3 -5 -1 -10 4 -10 6 0 11 5 11 10 0 6 -2 10 -4 10 -3 0
-8 -4 -11 -10z"/>
<path d="M4475 4710 c-8 -13 4 -32 16 -25 5 4 9 0 9 -7 0 -21 95 -55 105 -38
5 7 -103 80 -118 80 -3 0 -9 -4 -12 -10z"/>
<path d="M5785 4675 c-16 -7 -23 -14 -15 -14 8 0 26 6 40 14 32 18 14 18 -25
0z"/>
<path d="M6418 4679 c-2 -6 -29 -12 -60 -13 -56 -1 -65 -11 -29 -33 16 -10 34
-7 95 13 42 14 76 30 76 35 0 5 -11 4 -26 -1 -32 -13 -37 -12 -29 0 3 6 0 10
-9 10 -8 0 -16 -5 -18 -11z"/>
<path d="M5885 4660 c-3 -5 -18 -10 -33 -10 -73 -1 -93 -29 -45 -64 24 -17 29
-18 52 -5 14 8 32 27 39 42 7 15 21 27 30 27 15 0 15 2 2 10 -19 13 -37 13
-45 0z"/>
<path d="M6500 4629 c0 -7 -9 -9 -22 -5 -24 6 -98 -12 -98 -25 0 -4 13 -12 30
-17 32 -12 100 1 100 19 0 6 4 8 8 5 5 -3 9 1 9 9 0 8 -6 16 -14 19 -7 3 -13
0 -13 -5z"/>
<path d="M4575 4620 c3 -5 18 -10 32 -10 32 0 28 5 -10 14 -19 4 -26 3 -22 -4z"/>
<path d="M5581 4622 c-19 -3 -22 -9 -19 -32 3 -22 1 -27 -11 -23 -14 4 -14 3
-1 -6 8 -5 32 -13 52 -16 21 -4 38 -11 38 -16 0 -5 15 -9 33 -8 l32 1 -26 11
c-14 7 -24 17 -22 22 2 6 -9 24 -24 41 -20 22 -35 29 -52 26z m14 -52 c3 -5 1
-10 -4 -10 -6 0 -11 5 -11 10 0 6 2 10 4 10 3 0 8 -4 11 -10z"/>
<path d="M6665 4620 c-3 -6 1 -7 9 -4 18 7 21 14 7 14 -6 0 -13 -4 -16 -10z"/>
<path d="M5702 4613 c45 -90 49 -93 81 -68 18 13 18 15 -4 44 -13 17 -27 31
-33 31 -5 0 1 -11 13 -24 14 -15 19 -26 12 -31 -14 -8 -31 2 -31 20 0 8 -10
19 -21 26 -12 6 -20 7 -17 2z"/>
<path d="M2900 4559 c0 -5 5 -7 10 -4 6 3 10 8 10 11 0 2 -4 4 -10 4 -5 0 -10
-5 -10 -11z"/>
<path d="M3615 4560 c-9 -15 4 -30 23 -29 15 1 14 2 -1 6 -11 3 -16 11 -13 19
6 16 0 19 -9 4z"/>
<path d="M6202 4559 c-18 -5 -30 -14 -27 -19 4 -6 -3 -10 -14 -10 -12 0 -21
-7 -21 -15 0 -9 -10 -16 -27 -16 -28 -2 -28 -2 -3 -6 14 -3 27 -8 30 -12 6 -7
48 -31 55 -31 4 0 4 4 0 9 -3 5 10 9 29 8 19 -1 32 -6 29 -11 -5 -7 43 -5 102
6 20 3 35 16 35 30 0 4 -24 23 -54 42 -55 37 -77 41 -134 25z"/>
<path d="M4550 4556 c0 -2 8 -10 18 -17 15 -13 16 -12 3 4 -13 16 -21 21 -21
13z"/>
<path d="M5856 4541 c-4 -5 3 -7 14 -4 23 6 26 13 6 13 -8 0 -17 -4 -20 -9z"/>
<path d="M3620 4513 c0 -5 9 -14 20 -21 11 -7 20 -8 20 -2 0 5 -9 14 -20 20
-11 6 -20 7 -20 3z"/>
<path d="M6942 4479 c-13 -5 -29 -6 -34 -2 -6 3 -8 2 -5 -4 4 -5 -5 -16 -18
-23 -33 -17 -32 -30 2 -30 26 0 93 43 93 61 0 11 -8 11 -38 -2z"/>
<path d="M3678 4450 c2 -16 8 -30 12 -30 12 0 5 53 -7 57 -5 2 -8 -10 -5 -27z"/>
<path d="M5598 4473 c6 -2 18 -2 25 0 6 3 1 5 -13 5 -14 0 -19 -2 -12 -5z"/>
<path d="M5660 4470 c0 -5 7 -7 15 -4 8 4 15 8 15 10 0 2 -7 4 -15 4 -8 0 -15
-4 -15 -10z"/>
<path d="M6170 4420 c-19 -5 -38 -6 -43 -3 -5 3 -6 -4 -2 -16 5 -16 2 -21 -12
-22 -10 -1 14 -5 52 -10 75 -8 155 -1 135 11 -20 12 -1 30 31 30 16 0 29 5 29
11 0 6 -8 8 -17 5 -27 -8 -96 -11 -118 -4 -11 3 -36 2 -55 -2z"/>
<path d="M5403 4355 c0 -8 14 -19 30 -25 60 -21 78 -6 28 23 -36 21 -58 22
-58 2z"/>
<path d="M6555 4338 c-65 -23 -163 -106 -150 -127 3 -6 25 -11 47 -11 34 0 46
6 75 36 34 37 80 115 66 113 -5 0 -21 -5 -38 -11z"/>
<path d="M6635 4339 c-11 -17 1 -21 15 -4 8 9 8 15 2 15 -6 0 -14 -5 -17 -11z"/>
<path d="M6672 4324 c-9 -18 -17 -24 -30 -20 -22 7 -40 -6 -77 -56 -23 -33
-25 -38 -10 -38 29 0 155 106 155 131 0 19 -27 8 -38 -17z"/>
<path d="M6740 4315 c-7 -14 -17 -25 -21 -25 -12 0 -69 -51 -69 -61 0 -5 11
-7 25 -4 14 3 37 7 53 10 l27 5 -25 -15 -25 -15 30 6 c82 19 241 97 230 114
-3 5 -52 9 -109 9 -99 0 -103 0 -116 -24z"/>
<path d="M5953 4313 c15 -2 37 -2 50 0 12 2 0 4 -28 4 -27 0 -38 -2 -22 -4z"/>
<path d="M6262 4290 l-53 -29 40 -12 c32 -10 44 -9 56 1 23 19 18 30 -12 31
-27 2 -27 2 -3 6 13 3 33 11 44 19 39 27 -15 15 -72 -16z"/>
<path d="M6156 4301 c-3 -5 1 -11 9 -15 8 -3 15 -1 15 4 0 5 8 11 18 13 11 3
7 5 -10 6 -15 0 -29 -3 -32 -8z"/>
<path d="M6058 4283 c7 -3 16 -2 19 1 4 3 -2 6 -13 5 -11 0 -14 -3 -6 -6z"/>
<path d="M5815 4260 c3 -6 -1 -7 -10 -4 -9 4 -25 -2 -36 -12 -11 -10 -28 -19
-38 -21 -10 -1 -39 -12 -65 -23 -26 -11 -56 -20 -66 -20 -10 0 -22 -4 -25 -10
-12 -19 48 -22 116 -5 39 9 76 14 84 11 7 -2 16 1 19 9 3 8 13 13 23 13 56 -4
97 31 47 40 -10 2 -23 7 -27 12 -5 4 3 5 17 3 15 -3 26 -1 26 6 0 6 -16 11
-36 11 -20 0 -33 -4 -29 -10z"/>
<path d="M5058 4236 c18 -13 43 -34 57 -47 48 -47 61 -58 90 -73 17 -9 39 -16
50 -16 19 0 19 0 0 14 -11 7 -32 16 -47 20 -16 3 -33 18 -40 33 -7 16 -36 43
-63 60 -57 38 -95 45 -47 9z"/>
<path d="M6800 4204 c-58 -29 -101 -53 -96 -53 20 -2 166 64 193 85 42 35 19
27 -97 -32z"/>
<path d="M6055 4150 c-11 -5 -32 -9 -47 -9 -16 -1 -28 -5 -28 -11 0 -5 -21 -3
-47 5 -60 18 -64 18 -57 0 4 -8 10 -13 14 -10 5 3 15 -1 23 -9 20 -20 75 -17
117 7 53 29 68 45 25 27z"/>
<path d="M6325 4151 c-19 -8 -19 -8 3 -15 27 -9 99 1 108 15 8 14 -60 11 -75
-3 -11 -10 -13 -10 -7 0 8 13 1 14 -29 3z"/>
<path d="M5778 4113 c7 -3 16 -2 19 1 4 3 -2 6 -13 5 -11 0 -14 -3 -6 -6z"/>
<path d="M6022 4100 c-47 -11 -51 -20 -8 -16 20 1 42 8 48 14 13 13 8 14 -40
2z"/>
<path d="M5835 4090 c-4 -6 9 -10 31 -10 42 0 42 4 2 14 -15 3 -30 2 -33 -4z"/>
<path d="M5225 4071 c11 -11 37 -22 59 -25 21 -4 42 -9 47 -12 13 -8 11 6 -4
20 -23 23 -55 37 -59 25 -2 -7 -13 -7 -33 1 -30 11 -30 11 -10 -9z"/>
<path d="M2502 4071 c-11 -7 -10 -10 3 -15 23 -9 25 -8 25 9 0 17 -9 19 -28 6z"/>
<path d="M2705 3978 c-37 -40 -37 -40 -5 -12 19 17 44 36 55 42 15 8 16 11 5
12 -9 0 -34 -19 -55 -42z"/>
<path d="M6538 3965 c-15 -9 -51 -22 -80 -30 l-53 -15 75 5 c54 4 79 10 88 22
25 34 13 41 -30 18z"/>
<path d="M6645 3960 c-3 -5 1 -10 9 -10 9 0 16 5 16 10 0 6 -4 10 -9 10 -6 0
-13 -4 -16 -10z"/>
<path d="M5690 3930 c8 -5 29 -9 45 -9 29 1 29 1 5 9 -14 4 -34 8 -45 9 -16 1
-17 -1 -5 -9z"/>
<path d="M2655 3919 c-4 -6 -5 -12 -2 -15 2 -3 7 2 10 11 7 17 1 20 -8 4z"/>
<path d="M6295 3879 l-80 -5 95 -1 c52 0 109 3 125 7 26 7 24 8 -15 7 -25 -1
-81 -5 -125 -8z"/>
<path d="M2451 3710 c1 -46 4 -67 9 -55 11 28 10 98 0 115 -6 10 -9 -11 -9
-60z"/>
<path d="M2226 3663 c-6 -14 -5 -15 5 -6 7 7 10 15 7 18 -3 3 -9 -2 -12 -12z"/>
<path d="M4237 3575 c-9 -20 -17 -41 -17 -48 0 -7 9 8 20 32 24 52 21 66 -3
16z"/>
<path d="M2708 3593 c6 -2 18 -2 25 0 6 3 1 5 -13 5 -14 0 -19 -2 -12 -5z"/>
<path d="M2868 3593 c7 -3 16 -2 19 1 4 3 -2 6 -13 5 -11 0 -14 -3 -6 -6z"/>
<path d="M2496 3551 c-3 -5 3 -20 15 -32 l20 -24 -15 26 c-9 14 -13 29 -9 32
3 4 4 7 0 7 -3 0 -8 -4 -11 -9z"/>
<path d="M5245 3500 c9 -16 18 -30 21 -30 2 0 -2 14 -11 30 -9 17 -18 30 -21
30 -2 0 2 -13 11 -30z"/>
<path d="M2447 3441 c-2 -10 -1 -25 4 -32 6 -10 9 -4 9 19 0 36 -5 42 -13 13z"/>
<path d="M4541 3423 c7 -12 15 -20 18 -17 3 2 -3 12 -13 22 -17 16 -18 16 -5
-5z"/>
<path d="M5286 3427 c3 -10 9 -15 12 -12 3 3 0 11 -7 18 -10 9 -11 8 -5 -6z"/>
<path d="M2450 3369 c0 -5 5 -7 10 -4 6 3 10 8 10 11 0 2 -4 4 -10 4 -5 0 -10
-5 -10 -11z"/>
<path d="M5543 3348 c-20 -26 -26 -41 -15 -34 12 7 36 46 29 46 -3 0 -9 -6
-14 -12z"/>
<path d="M5490 3270 c-12 -16 -19 -30 -16 -30 2 0 14 14 26 30 12 17 19 30 16
30 -2 0 -14 -13 -26 -30z"/>
<path d="M4365 3210 c27 -27 51 -50 54 -50 3 0 -17 23 -44 50 -27 28 -51 50
-54 50 -3 0 17 -22 44 -50z"/>
<path d="M6656 3243 c-6 -14 -5 -15 5 -6 7 7 10 15 7 18 -3 3 -9 -2 -12 -12z"/>
<path d="M2290 3217 c0 -2 6 -10 14 -16 11 -9 16 -9 22 1 4 7 4 10 -1 6 -4 -4
-14 -3 -22 3 -7 6 -13 9 -13 6z"/>
<path d="M5425 3190 c-3 -5 -1 -10 4 -10 6 0 11 5 11 10 0 6 -2 10 -4 10 -3 0
-8 -4 -11 -10z"/>
<path d="M4627 3179 c7 -7 15 -10 18 -7 3 3 -2 9 -12 12 -14 6 -15 5 -6 -5z"/>
<path d="M5345 3130 c-19 -37 -19 -46 0 -30 9 7 13 15 11 18 -3 2 -1 13 5 23
5 11 7 19 5 19 -3 0 -12 -13 -21 -30z"/>
<path d="M2538 3093 c6 -2 18 -2 25 0 6 3 1 5 -13 5 -14 0 -19 -2 -12 -5z"/>
<path d="M6275 2930 c-3 -5 -2 -10 4 -10 5 0 13 5 16 10 3 6 2 10 -4 10 -5 0
-13 -4 -16 -10z"/>
</g>
</svg>
